<svg width="128" height="40" viewBox="0 0 128 40" fill="none" xmlns="http://www.w3.org/2000/svg">
<g id="avitoLogo">
<path id="Vector" d="M26.5668 39.2373H34.313L19.9671 0.175171H14.3485L0 39.2387H7.74689L10.4867 31.7822H23.8269L26.5668 39.2387L12.6443 25.9038L17.1575 13.6204L21.668 25.9038H12.6443L26.5668 39.2373ZM53.5157 12.5689L46.387 31.9737L39.2616 12.5689H31.9833L41.782 39.2373H50.9932L60.7907 12.5689H53.5144M63.8369 12.5689H71.1152V39.2373H63.8369V12.5689Z" fill="#686868"/>
<path id="Vector_2" d="M67.501 9.54051C70.089 9.54051 72.187 7.4425 72.187 4.85448C72.187 2.26646 70.089 0.168457 67.501 0.168457C64.9129 0.168457 62.8149 2.26646 62.8149 4.85448C62.8149 7.4425 64.9129 9.54051 67.501 9.54051Z" fill="#686868"/>
<path id="Vector_3" d="M96.8129 18.4459V12.5688H88.0943V5.21204H80.8206V12.5688H75.0645V18.4459H80.8206V29.9197C80.8206 35.838 83.7798 39.7882 91.3359 39.7882C94.2539 39.7882 96.8129 38.7168 96.8129 38.7168L95.9289 32.9586C95.9289 32.9586 94.4965 33.3867 92.7351 33.3867C90.5762 33.3867 88.0943 32.4561 88.0943 29.4717V18.4452L96.8129 18.4459ZM113.503 33.1414C109.445 33.1414 106.157 29.9243 106.157 25.9562C106.157 21.9913 109.445 18.7736 113.502 18.7736C117.561 18.7736 120.848 21.992 120.848 25.9568C120.848 29.925 117.561 33.1414 113.503 33.1414ZM113.503 11.8881C105.615 11.8881 99.2171 18.1461 99.2171 25.8598C99.2171 33.5768 105.615 39.8315 113.502 39.8315C121.387 39.8315 127.785 33.5768 127.785 25.8598C127.785 18.1461 121.387 11.8881 113.502 11.8881" fill="#686868"/>
</g>
</svg>
