<svg width="134" height="134" viewBox="0 0 134 134" fill="none" xmlns="http://www.w3.org/2000/svg">
<path fill-rule="evenodd" clip-rule="evenodd" d="M9 16.4476C9 7.36384 16.3377 0 25.3893 0H48.0612V0.0727691C48.453 0.0413263 48.8476 0.0199412 49.2448 0.00887105V1.96457C49.2448 11.0483 56.5826 18.4121 65.6341 18.4121H67.7738C76.8254 18.4121 84.1631 11.0483 84.1631 1.96455V4.51752e-05C84.5603 0.000833264 84.955 0.0119294 85.347 0.0330811V0H108.611C117.662 0 125 7.36382 125 16.4476V36.8242H106.653V98H27.3469V36.8242H9V16.4476Z" fill="#E8E8E8"/>
<path fill-rule="evenodd" clip-rule="evenodd" d="M48.5619 0.0381664C48.3945 0.047873 48.2276 0.0594137 48.0612 0.0727691V0H25.3893C16.3377 0 9 7.36384 9 16.4476V36.8242H27.3469V98H106.653V36.8242H125V16.4476C125 7.36382 117.662 0 108.611 0H85.347V0.0330811C85.1805 0.0240971 85.0135 0.0169272 84.846 0.0115907C84.7855 0.00966013 84.7248 0.00796948 84.6641 0.00651971C84.4976 0.00254192 84.3306 0.000377434 84.1631 4.51752e-05V1.96455C84.1631 11.0483 76.8254 18.4121 67.7738 18.4121H65.6341C56.5826 18.4121 49.2448 11.0483 49.2448 1.96457V0.00887105C49.0774 0.0135361 48.9105 0.0200331 48.7441 0.0283426C48.6833 0.0313759 48.6226 0.0346509 48.5619 0.0381664ZM48.5619 0.724659V1.96457C48.5619 11.4268 56.2054 19.0974 65.6341 19.0974H67.7738C77.2026 19.0974 84.846 11.4268 84.846 1.96455V0.697262C85.0012 0.70236 85.156 0.709081 85.3103 0.717408L86.0299 0.75623V0.685315H108.611C117.285 0.685315 124.317 7.74231 124.317 16.4476V36.1389H105.97V97.3147H28.0298V36.1389H9.68289V16.4476C9.68289 7.74233 16.7149 0.685315 25.3893 0.685315H47.3783V0.815072L48.1156 0.755903C48.264 0.743997 48.4127 0.733578 48.5619 0.724659Z" fill="black"/>
<path fill-rule="evenodd" clip-rule="evenodd" d="M28 29V36H27V29H28Z" fill="black"/>
<path fill-rule="evenodd" clip-rule="evenodd" d="M107 29V36H106V29H107Z" fill="black"/>
<path fill-rule="evenodd" clip-rule="evenodd" d="M3 26.3567C3 17.3231 10.3748 10 19.4721 10H45.893H46.102H47.4071V13.7463C47.4071 22.7799 54.7819 30.103 63.8792 30.103H69.4656C78.5629 30.103 85.9377 22.7799 85.9377 13.7463V10H87.2449H88.1049H114.528C123.625 10 131 17.3231 131 26.3567V50.2061H110.754V117H23.2439V50.2061H3V26.3567Z" fill="#F5F5F5"/>
<path fill-rule="evenodd" clip-rule="evenodd" d="M110.068 49.5245H130.314V26.3567C130.314 17.6995 123.246 10.6815 114.528 10.6815H86.6241V13.7463C86.6241 23.1563 78.942 30.7846 69.4656 30.7846H63.8792C54.4029 30.7846 46.7208 23.1563 46.7208 13.7463V10.6815H19.4721C10.7539 10.6815 3.68634 17.6995 3.68634 26.3567V49.5245H23.9302V116.318H110.068V49.5245ZM110.754 117H23.2439V50.2061H3V26.3567C3 17.3231 10.3748 10 19.4721 10H47.4071V13.7463C47.4071 22.7799 54.7819 30.103 63.8792 30.103H69.4656C78.5629 30.103 85.9377 22.7799 85.9377 13.7463V10H114.528C123.625 10 131 17.3231 131 26.3567V50.2061H110.754V117Z" fill="black"/>
<path fill-rule="evenodd" clip-rule="evenodd" d="M24 41V50H23V41H24Z" fill="black"/>
<path fill-rule="evenodd" clip-rule="evenodd" d="M111 41V50H110V41H111Z" fill="black"/>
<path fill-rule="evenodd" clip-rule="evenodd" d="M0 37.4364C0 28.3588 7.34619 21 16.4082 21H43.7551H45.1224H46.4898V25.7945C46.4898 34.872 53.836 42.2308 62.898 42.2308H70.4184C79.4803 42.2308 86.8265 34.872 86.8265 25.7945V21H88.1939H90.2449H117.592C126.654 21 134 28.3588 134 37.4364V63.4606H112.806V134H21.1939V63.4606H0V37.4364Z" fill="#FAFAFA"/>
<path fill-rule="evenodd" clip-rule="evenodd" d="M112.122 62.7758H133.316V37.4364C133.316 28.737 126.276 21.6848 117.592 21.6848H87.5102V25.7945C87.5102 35.2502 79.8579 42.9157 70.4184 42.9157H62.898C53.4584 42.9157 45.8061 35.2502 45.8061 25.7945V21.6848H16.4082C7.72377 21.6848 0.683673 28.737 0.683673 37.4364V62.7758H21.8776V133.315H112.122V62.7758ZM112.806 134H21.1939V63.4606H0V37.4364C0 28.3588 7.34619 21 16.4082 21H46.4898V25.7945C46.4898 34.872 53.836 42.2308 62.898 42.2308H70.4184C79.4803 42.2308 86.8265 34.872 86.8265 25.7945V21H117.592C126.654 21 134 28.3588 134 37.4364V63.4606H112.806V134Z" fill="black"/>
<path fill-rule="evenodd" clip-rule="evenodd" d="M22 54V63H21V54H22Z" fill="black"/>
<path fill-rule="evenodd" clip-rule="evenodd" d="M113 54V63H112V54H113Z" fill="black"/>
</svg>
