<svg width="166" height="134" viewBox="0 0 166 134" fill="none" xmlns="http://www.w3.org/2000/svg">
<mask id="path-1-inside-1" fill="white">
<path fill-rule="evenodd" clip-rule="evenodd" d="M68.3268 0L48.1133 0V86H118.884V0H99.5665C95.7879 4.38821 90.1917 7.16666 83.9466 7.16666C77.7015 7.16666 72.1053 4.38821 68.3268 0Z"/>
</mask>
<path fill-rule="evenodd" clip-rule="evenodd" d="M68.3268 0L48.1133 0V86H118.884V0H99.5665C95.7879 4.38821 90.1917 7.16666 83.9466 7.16666C77.7015 7.16666 72.1053 4.38821 68.3268 0Z" fill="#F0F0F0"/>
<path d="M48.1133 0V-1H47.1133V0H48.1133ZM68.3268 0L69.0845 -0.652504L68.7853 -1H68.3268V0ZM48.1133 86H47.1133V87H48.1133V86ZM118.884 86V87H119.884V86H118.884ZM118.884 0H119.884V-1H118.884V0ZM99.5665 0V-1H99.1079L98.8087 -0.652504L99.5665 0ZM48.1133 1H68.3268V-1H48.1133V1ZM49.1133 86V0H47.1133V86H49.1133ZM118.884 85H48.1133V87H118.884V85ZM117.884 0V86H119.884V0H117.884ZM99.5665 1H118.884V-1H99.5665V1ZM98.8087 -0.652504C95.212 3.52449 89.8884 6.16666 83.9466 6.16666V8.16666C90.4951 8.16666 96.3638 5.25193 100.324 0.652504L98.8087 -0.652504ZM83.9466 6.16666C78.0048 6.16666 72.6812 3.52449 69.0845 -0.652504L67.569 0.652504C71.5294 5.25193 77.3982 8.16666 83.9466 8.16666V6.16666Z" fill="black" mask="url(#path-1-inside-1)"/>
<path d="M0.5 26C0.5 15.2304 9.23045 6.5 20 6.5H25.5V117.5H0.5V26Z" fill="#F0F0F0" stroke="black"/>
<path d="M165.5 26C165.5 15.2304 156.77 6.5 146 6.5H140.5V117.5H165.5V26Z" fill="#F0F0F0" stroke="black"/>
<path d="M6.5 28C6.5 17.2304 15.2304 8.5 26 8.5H33.5V127.5H6.5V28Z" fill="#FAFAFA" stroke="black"/>
<path d="M160.5 28C160.5 17.2304 151.77 8.5 141 8.5H133.5V127.5H160.5V28Z" fill="#FAFAFA" stroke="black"/>
<path d="M122.494 112.5C122.229 124.143 112.707 133.5 101 133.5H66C54.293 133.5 44.7714 124.143 44.5057 112.5H122.494Z" fill="#FAFAFA" stroke="black"/>
<mask id="path-8-inside-2" fill="white">
<path fill-rule="evenodd" clip-rule="evenodd" d="M84 31C96.7025 31 107 20.7025 107 8H123V104H44V8H61C61 20.7025 71.2975 31 84 31Z"/>
</mask>
<path fill-rule="evenodd" clip-rule="evenodd" d="M84 31C96.7025 31 107 20.7025 107 8H123V104H44V8H61C61 20.7025 71.2975 31 84 31Z" fill="#FAFAFA"/>
<path d="M107 8V7H106V8H107ZM123 8H124V7H123V8ZM123 104V105H124V104H123ZM44 104H43V105H44V104ZM44 8V7H43V8H44ZM61 8H62V7H61V8ZM106 8C106 20.1503 96.1503 30 84 30V32C97.2548 32 108 21.2548 108 8H106ZM107 9H123V7H107V9ZM122 8V104H124V8H122ZM123 103H44V105H123V103ZM45 104V8H43V104H45ZM44 9H61V7H44V9ZM84 30C71.8497 30 62 20.1503 62 8H60C60 21.2548 70.7452 32 84 32V30Z" fill="black" mask="url(#path-8-inside-2)"/>
</svg>
