<svg width="346" height="301" viewBox="0 0 346 301" fill="none" xmlns="http://www.w3.org/2000/svg">
<mask id="path-1-inside-1" fill="white">
<path fill-rule="evenodd" clip-rule="evenodd" d="M8.9495 230.543C1.26046 236.995 0.257536 248.459 6.7094 256.148C8.68496 258.502 11.1304 260.229 13.7935 261.308C14.8665 262.089 16.0655 262.735 17.3749 263.211L48.3847 274.498C55.9099 277.237 64.2306 273.357 66.9695 265.832C69.7085 258.306 65.8285 249.986 58.3033 247.247L49.437 244.02L62.2378 233.278C69.9268 226.827 70.9297 215.363 64.4779 207.674C58.026 199.985 46.5625 198.982 38.8735 205.434L8.9495 230.543Z"/>
</mask>
<path fill-rule="evenodd" clip-rule="evenodd" d="M8.9495 230.543C1.26046 236.995 0.257536 248.459 6.7094 256.148C8.68496 258.502 11.1304 260.229 13.7935 261.308C14.8665 262.089 16.0655 262.735 17.3749 263.211L48.3847 274.498C55.9099 277.237 64.2306 273.357 66.9695 265.832C69.7085 258.306 65.8285 249.986 58.3033 247.247L49.437 244.02L62.2378 233.278C69.9268 226.827 70.9297 215.363 64.4779 207.674C58.026 199.985 46.5625 198.982 38.8735 205.434L8.9495 230.543Z" fill="black"/>
<path d="M6.7094 256.148L5.94336 256.79L5.94336 256.79L6.7094 256.148ZM8.9495 230.543L9.59229 231.309L9.59229 231.309L8.9495 230.543ZM13.7935 261.308L14.3819 260.5L14.2827 260.427L14.1689 260.381L13.7935 261.308ZM17.3749 263.211L17.7169 262.271L17.7169 262.271L17.3749 263.211ZM48.3847 274.498L48.7267 273.558L48.7267 273.558L48.3847 274.498ZM66.9695 265.832L67.9092 266.174L67.9092 266.174L66.9695 265.832ZM58.3033 247.247L57.9613 248.186L57.9613 248.186L58.3033 247.247ZM49.437 244.02L48.7942 243.254L47.4673 244.367L49.0949 244.959L49.437 244.02ZM62.2378 233.278L61.595 232.512L61.595 232.512L62.2378 233.278ZM64.4779 207.674L65.2439 207.031L65.2439 207.031L64.4779 207.674ZM38.8735 205.434L38.2307 204.668L38.2307 204.668L38.8735 205.434ZM7.47545 255.505C1.37858 248.239 2.32633 237.406 9.59229 231.309L8.30671 229.777C0.194602 236.584 -0.863511 248.678 5.94336 256.79L7.47545 255.505ZM14.1689 260.381C11.6536 259.362 9.34343 257.731 7.47545 255.505L5.94336 256.79C8.02649 259.273 10.6072 261.096 13.4181 262.235L14.1689 260.381ZM17.7169 262.271C16.4963 261.827 15.3801 261.226 14.3819 260.5L13.205 262.117C14.3528 262.952 15.6347 263.642 17.0328 264.151L17.7169 262.271ZM48.7267 273.558L17.7169 262.271L17.0328 264.151L48.0427 275.437L48.7267 273.558ZM66.0299 265.49C63.4798 272.496 55.7329 276.108 48.7267 273.558L48.0427 275.437C56.0868 278.365 64.9814 274.218 67.9092 266.174L66.0299 265.49ZM57.9613 248.186C64.9675 250.736 68.5799 258.483 66.0299 265.49L67.9092 266.174C70.8371 258.129 66.6895 249.235 58.6453 246.307L57.9613 248.186ZM49.0949 244.959L57.9613 248.186L58.6453 246.307L49.779 243.08L49.0949 244.959ZM61.595 232.512L48.7942 243.254L50.0797 244.786L62.8805 234.045L61.595 232.512ZM63.7118 208.317C69.8087 215.583 68.8609 226.416 61.595 232.512L62.8805 234.045C70.9927 227.238 72.0508 215.143 65.2439 207.031L63.7118 208.317ZM39.5163 206.2C46.7822 200.103 57.6149 201.051 63.7118 208.317L65.2439 207.031C58.437 198.919 46.3428 197.861 38.2307 204.668L39.5163 206.2ZM9.59229 231.309L39.5163 206.2L38.2307 204.668L8.30671 229.777L9.59229 231.309Z" fill="black" mask="url(#path-1-inside-1)"/>
<mask id="path-3-inside-2" fill="white">
<path fill-rule="evenodd" clip-rule="evenodd" d="M243.531 230.543C251.22 236.995 252.223 248.459 245.771 256.148C243.796 258.502 241.35 260.229 238.687 261.308C237.614 262.089 236.415 262.735 235.106 263.211L204.096 274.498C196.571 277.237 188.25 273.357 185.511 265.832C182.772 258.306 186.652 249.986 194.177 247.247L203.044 244.02L190.243 233.278C182.554 226.827 181.551 215.363 188.003 207.674C194.454 199.985 205.918 198.982 213.607 205.434L243.531 230.543Z"/>
</mask>
<path fill-rule="evenodd" clip-rule="evenodd" d="M243.531 230.543C251.22 236.995 252.223 248.459 245.771 256.148C243.796 258.502 241.35 260.229 238.687 261.308C237.614 262.089 236.415 262.735 235.106 263.211L204.096 274.498C196.571 277.237 188.25 273.357 185.511 265.832C182.772 258.306 186.652 249.986 194.177 247.247L203.044 244.02L190.243 233.278C182.554 226.827 181.551 215.363 188.003 207.674C194.454 199.985 205.918 198.982 213.607 205.434L243.531 230.543Z" fill="black"/>
<path d="M245.771 256.148L246.537 256.79L246.537 256.79L245.771 256.148ZM243.531 230.543L242.888 231.309L242.888 231.309L243.531 230.543ZM238.687 261.308L238.099 260.5L238.198 260.427L238.312 260.381L238.687 261.308ZM235.106 263.211L234.764 262.271L234.764 262.271L235.106 263.211ZM204.096 274.498L203.754 273.558L203.754 273.558L204.096 274.498ZM185.511 265.832L184.571 266.174L184.571 266.174L185.511 265.832ZM194.177 247.247L194.519 248.186L194.519 248.186L194.177 247.247ZM203.044 244.02L203.686 243.254L205.013 244.367L203.386 244.959L203.044 244.02ZM190.243 233.278L190.886 232.512L190.886 232.512L190.243 233.278ZM188.003 207.674L187.237 207.031L187.237 207.031L188.003 207.674ZM213.607 205.434L214.25 204.668L214.25 204.668L213.607 205.434ZM245.005 255.505C251.102 248.239 250.154 237.406 242.888 231.309L244.174 229.777C252.286 236.584 253.344 248.678 246.537 256.79L245.005 255.505ZM238.312 260.381C240.827 259.362 243.137 257.731 245.005 255.505L246.537 256.79C244.454 259.273 241.873 261.096 239.062 262.235L238.312 260.381ZM234.764 262.271C235.984 261.827 237.1 261.226 238.099 260.5L239.275 262.117C238.128 262.952 236.846 263.642 235.448 264.151L234.764 262.271ZM203.754 273.558L234.764 262.271L235.448 264.151L204.438 275.437L203.754 273.558ZM186.451 265.49C189.001 272.496 196.748 276.108 203.754 273.558L204.438 275.437C196.394 278.365 187.499 274.218 184.571 266.174L186.451 265.49ZM194.519 248.186C187.513 250.736 183.901 258.483 186.451 265.49L184.571 266.174C181.643 258.129 185.791 249.235 193.835 246.307L194.519 248.186ZM203.386 244.959L194.519 248.186L193.835 246.307L202.701 243.08L203.386 244.959ZM190.886 232.512L203.686 243.254L202.401 244.786L189.6 234.045L190.886 232.512ZM188.769 208.317C182.672 215.583 183.62 226.416 190.886 232.512L189.6 234.045C181.488 227.238 180.43 215.143 187.237 207.031L188.769 208.317ZM212.964 206.2C205.698 200.103 194.866 201.051 188.769 208.317L187.237 207.031C194.043 198.919 206.138 197.861 214.25 204.668L212.964 206.2ZM242.888 231.309L212.964 206.2L214.25 204.668L244.174 229.777L242.888 231.309Z" fill="black" mask="url(#path-3-inside-2)"/>
<circle cx="127.75" cy="158" r="55.5" fill="white" stroke="black"/>
<circle cx="129.75" cy="170" r="3.5" fill="white" stroke="black"/>
<circle cx="108.75" cy="156" r="5" fill="black"/>
<circle cx="146.75" cy="156" r="5" fill="black"/>
<path d="M45.75 171.5H208.75C213.997 171.5 218.25 175.753 218.25 181V282.5H36.25V181C36.25 175.753 40.5033 171.5 45.75 171.5Z" fill="white" stroke="black"/>
<circle cx="127.75" cy="231" r="7" fill="black"/>
<path d="M35.75 283H218.75V283C218.75 285.761 216.511 288 213.75 288H40.75C37.9886 288 35.75 285.761 35.75 283V283Z" fill="black"/>
<path d="M3.75 300H253.75" stroke="black"/>
<path d="M72.25 152.5C99.45 148.9 119.248 127 126.248 116.5C130.415 108.987 143.15 98.4691 164.75 116.5C169.75 119.5 173.75 127 179.463 137C184.608 150.684 183.767 164.396 181.25 171.5H190.25C191.917 157.5 191.05 124.9 174.25 106.5C157.45 88.0999 132.249 93.4999 121.748 98.4999C69.7482 102.1 64.4149 148.667 68.2482 171.5C71.2482 172.333 74.2482 171.5 74.2482 171.5C71.8482 169.5 72.25 158 72.25 152.5Z" fill="black"/>
<path d="M6.25 152V164.5" stroke="black"/>
<path d="M0 158.25H12.5" stroke="black"/>
<path d="M30 105V127.5" stroke="black"/>
<path d="M18.75 116.25H41.25" stroke="black"/>
<path d="M248 191V205.5" stroke="black"/>
<path d="M240.75 198.25H255.25" stroke="black"/>
<path d="M92.7617 131.75C94.4075 131.136 95.6455 129.645 96.9571 128.521C97.8416 127.763 98.6868 127.004 99.5137 126.178C100.49 125.201 101.295 124.101 102.267 123.129C102.878 122.518 103.117 121.453 103.824 120.982" stroke="white" stroke-linecap="round" stroke-linejoin="round"/>
<circle cx="112.75" cy="153" r="2" fill="white"/>
<circle cx="150.75" cy="153" r="2" fill="white"/>
<path d="M163.027 110.381C164.953 111.061 166.055 112.68 167.138 114.351C168.49 116.437 170.543 118.383 171.499 120.677C172.803 123.808 174.029 126.845 175.118 130.05C176.82 135.062 176.561 140.274 176.561 145.489C176.561 150.959 177.496 156.334 178.817 161.62C179.743 165.324 181.302 168.853 183.599 171.916" stroke="black" stroke-linecap="round" stroke-linejoin="round"/>
<path d="M81.9387 159.87C81.9387 156.305 82.7929 151.628 80.8969 148.468C79.8328 146.694 79.0792 146.326 76.9901 146.326C75.7623 146.326 73.3438 147.163 73.3438 148.67" stroke="black" stroke-linecap="round" stroke-linejoin="round"/>
<path d="M75.3309 167.984C73.6469 167.286 72.1957 166.309 71.2344 164.707" stroke="black" stroke-linecap="round" stroke-linejoin="round"/>
<path d="M75.987 165.198C75.2291 164.884 74.2071 164.372 73.6565 163.76C73.3879 163.461 73.1102 163.169 72.8372 162.868C72.4545 162.445 72.1646 161.321 71.7266 161.102" stroke="black" stroke-linecap="round" stroke-linejoin="round"/>
<path d="M79.4263 155.53C79.4263 154.255 79.229 153.165 79.0986 151.925C78.9928 150.92 77.644 149.795 76.6406 149.795" stroke="black" stroke-linecap="round" stroke-linejoin="round"/>
<mask id="path-28-inside-3" fill="white">
<path fill-rule="evenodd" clip-rule="evenodd" d="M329.75 31C329.75 31.5539 329.732 32.1035 329.697 32.6484C339.085 36.2475 345.75 45.3454 345.75 56C345.75 69.8071 334.557 81 320.75 81C319.746 81 318.755 80.9408 317.782 80.8256C313.563 88.6685 305.279 94 295.75 94C287.572 94 280.311 90.0733 275.75 84.0024C271.189 90.0733 263.928 94 255.75 94C246.256 94 237.998 88.708 233.765 80.913C230.699 82.2553 227.312 83 223.75 83C219.432 83 215.37 81.9053 211.825 79.9782C210.357 82.9534 207.292 85 203.75 85C198.779 85 194.75 80.9706 194.75 76C194.75 72.1227 197.202 68.8181 200.64 67.5519C199.422 64.609 198.75 61.383 198.75 58C198.75 47.6289 205.065 38.7328 214.06 34.9473C213.856 33.6616 213.75 32.3431 213.75 31C213.75 17.1929 224.943 6 238.75 6C244.167 6 249.182 7.72286 253.276 10.6505C257.798 4.20975 265.282 0 273.75 0C281.454 0 288.345 3.4851 292.931 8.9648C296.45 7.07316 300.475 6 304.75 6C318.557 6 329.75 17.1929 329.75 31Z"/>
</mask>
<path fill-rule="evenodd" clip-rule="evenodd" d="M329.75 31C329.75 31.5539 329.732 32.1035 329.697 32.6484C339.085 36.2475 345.75 45.3454 345.75 56C345.75 69.8071 334.557 81 320.75 81C319.746 81 318.755 80.9408 317.782 80.8256C313.563 88.6685 305.279 94 295.75 94C287.572 94 280.311 90.0733 275.75 84.0024C271.189 90.0733 263.928 94 255.75 94C246.256 94 237.998 88.708 233.765 80.913C230.699 82.2553 227.312 83 223.75 83C219.432 83 215.37 81.9053 211.825 79.9782C210.357 82.9534 207.292 85 203.75 85C198.779 85 194.75 80.9706 194.75 76C194.75 72.1227 197.202 68.8181 200.64 67.5519C199.422 64.609 198.75 61.383 198.75 58C198.75 47.6289 205.065 38.7328 214.06 34.9473C213.856 33.6616 213.75 32.3431 213.75 31C213.75 17.1929 224.943 6 238.75 6C244.167 6 249.182 7.72286 253.276 10.6505C257.798 4.20975 265.282 0 273.75 0C281.454 0 288.345 3.4851 292.931 8.9648C296.45 7.07316 300.475 6 304.75 6C318.557 6 329.75 17.1929 329.75 31Z" fill="white"/>
<path d="M329.697 32.6484L328.699 32.5835L328.651 33.3185L329.339 33.5821L329.697 32.6484ZM317.782 80.8256L317.899 79.8326L317.223 79.7526L316.901 80.3519L317.782 80.8256ZM275.75 84.0024L276.549 83.4018L275.75 82.3376L274.951 83.4018L275.75 84.0024ZM233.765 80.913L234.644 80.4358L234.206 79.6286L233.364 79.9969L233.765 80.913ZM211.825 79.9782L212.303 79.0996L211.389 78.6027L210.929 79.5356L211.825 79.9782ZM200.64 67.5519L200.985 68.4903L201.961 68.1308L201.564 67.1696L200.64 67.5519ZM214.06 34.9473L214.448 35.869L215.17 35.5649L215.048 34.7907L214.06 34.9473ZM253.276 10.6505L252.694 11.4639L253.514 12.0506L254.094 11.2251L253.276 10.6505ZM292.931 8.9648L292.164 9.6066L292.687 10.2313L293.404 9.84563L292.931 8.9648ZM330.694 32.7133C330.731 32.1469 330.75 31.5756 330.75 31H328.75C328.75 31.5322 328.733 32.0602 328.699 32.5835L330.694 32.7133ZM346.75 56C346.75 44.9176 339.817 35.4571 330.054 31.7147L329.339 33.5821C338.353 37.0379 344.75 45.7731 344.75 56H346.75ZM320.75 82C335.109 82 346.75 70.3594 346.75 56H344.75C344.75 69.2548 334.005 80 320.75 80V82ZM317.664 81.8187C318.677 81.9385 319.706 82 320.75 82V80C319.785 80 318.834 79.9431 317.899 79.8326L317.664 81.8187ZM295.75 95C305.662 95 314.277 89.4533 318.662 81.2993L316.901 80.3519C312.85 87.8836 304.897 93 295.75 93V95ZM274.951 84.6031C279.692 90.9145 287.244 95 295.75 95V93C287.9 93 280.93 89.232 276.549 83.4018L274.951 84.6031ZM255.75 95C264.256 95 271.808 90.9145 276.549 84.6031L274.951 83.4018C270.57 89.232 263.6 93 255.75 93V95ZM232.887 81.3902C237.288 89.4945 245.875 95 255.75 95V93C246.637 93 238.709 87.9216 234.644 80.4358L232.887 81.3902ZM223.75 84C227.452 84 230.976 83.2256 234.166 81.8291L233.364 79.9969C230.422 81.2849 227.171 82 223.75 82V84ZM211.348 80.8567C215.035 82.8615 219.261 84 223.75 84V82C219.603 82 215.704 80.949 212.303 79.0996L211.348 80.8567ZM210.929 79.5356C209.622 82.1827 206.897 84 203.75 84V86C207.687 86 211.092 83.7242 212.722 80.4208L210.929 79.5356ZM203.75 84C199.332 84 195.75 80.4183 195.75 76H193.75C193.75 81.5229 198.227 86 203.75 86V84ZM195.75 76C195.75 72.5551 197.928 69.6163 200.985 68.4903L200.294 66.6136C196.476 68.0198 193.75 71.6903 193.75 76H195.75ZM197.75 58C197.75 61.5165 198.449 64.8723 199.716 67.9343L201.564 67.1696C200.395 64.3458 199.75 61.2495 199.75 58H197.75ZM213.672 34.0256C204.319 37.9617 197.75 47.2125 197.75 58H199.75C199.75 48.0453 205.811 39.5039 214.448 35.869L213.672 34.0256ZM212.75 31C212.75 32.3958 212.86 33.7666 213.072 35.104L215.048 34.7907C214.852 33.5565 214.75 32.2905 214.75 31H212.75ZM238.75 5C224.391 5 212.75 16.6406 212.75 31H214.75C214.75 17.7452 225.495 7 238.75 7V5ZM253.857 9.83708C249.599 6.79211 244.382 5 238.75 5V7C243.952 7 248.764 8.6536 252.694 11.4639L253.857 9.83708ZM273.75 -1C264.943 -1 257.159 3.37991 252.457 10.0759L254.094 11.2251C258.437 5.03959 265.622 1 273.75 1V-1ZM293.698 8.32301C288.93 2.62599 281.763 -1 273.75 -1V1C281.146 1 287.76 4.3442 292.164 9.6066L293.698 8.32301ZM304.75 5C300.305 5 296.119 6.11604 292.457 8.08398L293.404 9.84563C296.782 8.03029 300.644 7 304.75 7V5ZM330.75 31C330.75 16.6406 319.109 5 304.75 5V7C318.005 7 328.75 17.7452 328.75 31H330.75Z" fill="black" mask="url(#path-28-inside-3)"/>
<path d="M227.39 60.1404L228.717 58.0218L247.361 69.7007L246.034 71.8194L227.39 60.1404Z" fill="black"/>
<path d="M228.717 58.0218L227.39 60.1404L246.034 71.8194L247.361 69.7007L228.293 57.7563" stroke="black"/>
<path d="M259.907 32.7195L257.287 31.0786L236.053 64.977L238.672 66.6178L259.907 32.7195Z" fill="black"/>
<path d="M234.352 41.4915L237.844 43.6793L239.437 41.1369L235.945 38.9491M257.287 31.0786L259.907 32.7195L238.672 66.6178L236.053 64.977L257.287 31.0786Z" stroke="black"/>
<path d="M242.138 29.0622L249.951 24.1234L257.861 29.0781L236.627 62.9765L228.717 58.0218L236.68 45.3099L233.29 43.1865L242.138 29.0622Z" fill="white"/>
<path d="M247.222 32.2473L238.375 46.3716L236.68 45.3099M236.68 45.3099L233.29 43.1865L242.138 29.0622L249.951 24.1234L257.861 29.0781L236.627 62.9765L228.717 58.0218L236.68 45.3099Z" stroke="black"/>
<path d="M236.74 37.6782L239.706 39.5362L238.114 42.0786L235.148 40.2206" stroke="black"/>
<path d="M267.562 44.9879L268.596 35.8023L260.686 30.8476L239.451 64.746L247.361 69.7007L255.324 56.9888L258.714 59.1123L267.562 44.9879Z" fill="white"/>
<path d="M262.477 41.8028L253.629 55.9271L255.324 56.9888M255.324 56.9888L258.714 59.1123L267.562 44.9879L268.596 35.8023L260.686 30.8476L239.451 64.746L247.361 69.7007L255.324 56.9888Z" stroke="black"/>
<circle cx="239.427" cy="54.1107" r="1" transform="rotate(32.0636 239.427 54.1107)" fill="black"/>
<circle cx="243.143" cy="48.1786" r="1" transform="rotate(32.0636 243.143 48.1786)" fill="black"/>
<circle cx="246.859" cy="42.2465" r="1" transform="rotate(32.0636 246.859 42.2465)" fill="black"/>
<circle cx="250.575" cy="36.3139" r="1" transform="rotate(32.0636 250.575 36.3139)" fill="black"/>
<path d="M261.899 54.0277L258.509 51.9043L256.916 54.4467L260.306 56.5701" stroke="black"/>
<path d="M282.804 37.8093C281.866 37.2004 279.636 37.3513 277.48 38.6177C274.969 40.0926 272.204 43.4569 284.82 60.9811" stroke="black"/>
<path d="M281.586 39.6849C280.386 39.6166 277.844 40.0276 277.275 42.2176C276.564 44.9552 278.994 51.0659 283.553 58.8258C287.201 65.0337 288.655 63.5607 288.926 62.0483" stroke="black"/>
<path d="M289.271 34.0096C289.196 32.8942 290.413 31.0191 292.569 29.7525C295.08 28.2772 299.364 27.4996 308.531 47.0503" stroke="black"/>
<path d="M291.502 33.8591C292.027 32.7777 293.623 30.7573 295.813 31.3263C298.551 32.0376 302.705 37.1353 307.264 44.8951C310.912 51.103 308.917 51.6563 307.464 51.1569" stroke="black"/>
<path d="M283.235 37.5558L282.982 37.1247C282.142 35.6962 282.62 33.8577 284.049 33.0184V33.0184C285.477 32.1791 287.316 32.6568 288.155 34.0854L288.408 34.5165" stroke="black"/>
<path d="M288.802 56.9017L284.243 49.1418C282.005 45.3323 283.279 40.4298 287.088 38.1917V38.1917C290.898 35.9536 295.8 37.2274 298.038 41.0369L302.597 48.7968" stroke="black"/>
<path d="M281.656 50.661L289.001 63.163C289.84 64.5916 291.679 65.0693 293.107 64.23L306.903 56.1251C308.331 55.2858 308.809 53.4474 307.97 52.0188L300.625 39.5168C298.767 36.3554 293.156 31.147 285.568 35.6046C277.981 40.0623 279.799 47.4996 281.656 50.661Z" stroke="black"/>
<rect x="287.104" y="54.9991" width="17" height="8" rx="1.5" transform="rotate(-30.4347 287.104 54.9991)" fill="white" stroke="black"/>
<circle cx="191.75" cy="91" r="4.5" fill="white" stroke="black"/>
<path d="M266.301 17.6418C265.924 15.841 265.492 14.0783 267.096 12.7213C268.308 11.6957 269.913 11.2871 271.464 11.2871C273.293 11.2871 273.723 13.2133 273.439 14.7734C273.182 16.1862 272.441 17.4816 272.215 18.9878C271.892 21.1367 272.807 22.2646 273.45 24.1952" stroke="black" stroke-linecap="round" stroke-linejoin="round"/>
<path d="M274.443 27.1738C272.875 29.395 276.106 28.975 276.219 28.4646C276.399 27.6548 275.837 27.1738 275.039 27.1738" stroke="black" stroke-linecap="round" stroke-linejoin="round"/>
<path d="M267.904 62.7057C269.069 62.1659 269.172 60.4492 269.172 59.283C269.172 58.5934 269.456 59.5545 269.58 59.7619C269.893 60.2827 270.384 60.7408 270.89 61.0648C271.463 61.4314 271.985 61.5973 272.644 61.6986C273.02 61.7565 272.425 61.8655 272.341 61.9451C271.93 62.3334 271.427 62.6375 271.263 63.2269C271.11 63.7773 271.15 64.5521 271.27 65.1002C271.289 65.1857 271.543 65.9607 271.453 65.8045C271.216 65.3893 270.693 64.5794 270.313 64.3255C269.698 63.9156 269.605 63.3396 268.721 63.3396C268.153 63.3396 267.585 63.3396 267.017 63.3396" stroke="black" stroke-linecap="round" stroke-linejoin="round"/>
<path d="M301.727 26.0593C301.727 24.4917 301.576 22.8351 301.753 21.2747C301.864 20.3061 302.097 18.8065 303.189 18.4428C304.535 17.9941 304.211 19.7982 304.049 20.5312C303.995 20.7732 304.039 20.5128 304.191 20.4083C304.6 20.1267 305.018 19.9073 305.445 19.6583C305.819 19.4404 306.128 19.4256 306.551 19.4256C306.936 19.4256 306.716 19.5514 306.874 19.7489C307.106 20.0384 306.861 20.356 306.732 20.6476C306.526 21.1101 306.042 21.2582 306.732 21.0808C307.332 20.9264 308.596 20.6899 309.176 20.9644C309.536 21.1352 309.409 21.7265 309.409 22.0442C309.409 23.046 307.909 23.5655 307.197 24.0226C306.312 24.5917 305.203 24.6976 304.314 25.2446C303.732 25.6026 302.942 25.9648 302.309 26.1757" stroke="black" stroke-linecap="round" stroke-linejoin="round"/>
<path d="M211.993 58.5961C213.336 55.2797 215.406 53.513 218.669 52.1144C220.115 51.4947 221.929 50.7769 223.516 50.7769" stroke="black" stroke-linecap="round" stroke-linejoin="round"/>
<path d="M221.047 48.9248C222.021 49.4217 223.132 50.1732 223.928 50.571" stroke="black" stroke-linecap="round" stroke-linejoin="round"/>
<path d="M223.928 50.5713C223.264 51.6598 222.48 52.8594 222.076 54.0694" stroke="black" stroke-linecap="round" stroke-linejoin="round"/>
<path d="M309.808 62.9945C311.075 64.1911 313.078 64.4594 314.704 64.8519C316.108 65.1907 317.717 65.274 319.158 65.274C320.114 65.274 320.892 65.1206 321.779 64.7843C322.546 64.4935 323.358 64.3378 324.075 63.9232C324.747 63.5354 325.485 63.1398 326.182 62.8046C326.778 62.5173 327.23 61.944 327.891 61.7788" stroke="black" stroke-linecap="round" stroke-linejoin="round"/>
<path d="M309.731 65.198C309.731 64.4751 309.909 63.4265 309.579 62.7666" stroke="black" stroke-linecap="round" stroke-linejoin="round"/>
<path d="M309.579 62.7662C310.434 62.7662 311.814 62.3776 312.314 61.6265" stroke="black" stroke-linecap="round" stroke-linejoin="round"/>
<path d="M242.268 22.7429C244.238 22.0729 245.786 20.3975 247.507 19.27C248.177 18.8308 248.87 18.0679 249.681 18.0679C250.887 18.0679 251.879 18.9378 253.013 19.1439C254.046 19.3318 255.101 20.1433 256.026 20.6058" stroke="black" stroke-linecap="round" stroke-linejoin="round"/>
<path d="M251.751 73.9013C252.381 72.176 253.614 70.6293 254.608 69.1001C254.813 68.7853 255.161 67.7232 255.461 68.2913C255.766 68.8674 256.792 68.971 257.287 69.2856C257.969 69.7195 259.048 69.4736 259.765 69.7606" stroke="black" stroke-linecap="round" stroke-linejoin="round"/>
<path d="M288.388 76.5687C289.986 76.249 290.598 75.1931 291.739 74.28C291.928 74.129 291.919 73.7 291.993 74.0348C292.056 74.3167 292.312 74.5178 292.438 74.7704C292.761 75.4147 293.554 76.2854 294.191 76.5687C295.117 76.9801 295.18 76.5938 294.237 77.2226C293.359 77.8079 292.597 78.3096 292.066 79.2661C292.01 79.3669 291.965 79.9643 291.903 79.9018C291.635 79.6339 291.397 79.063 291.167 78.7302C290.705 78.0633 290.218 77.5817 289.532 77.1409C289.176 76.9122 288.022 76.8183 287.897 76.5687" stroke="black" stroke-linecap="round" stroke-linejoin="round"/>
</svg>
