<svg width="32" height="32" viewBox="0 0 32 32" fill="none" xmlns="http://www.w3.org/2000/svg">
<path d="M15.75 7.66406C17.1562 7.66406 18.4922 8.08594 19.7578 8.78906C21.0234 9.49219 22.0078 10.4766 22.7109 11.7422C23.4141 13.0078 23.8359 14.3438 23.8359 15.75C23.8359 17.2266 23.4141 18.5625 22.7109 19.8281C22.0078 21.0938 21.0234 22.0781 19.7578 22.7812C18.4922 23.4844 17.1562 23.8359 15.75 23.8359C14.2734 23.8359 12.9375 23.4844 11.6719 22.7812C10.4062 22.0781 9.42188 21.0938 8.71875 19.8281C8.01562 18.5625 7.66406 17.2266 7.66406 15.75C7.66406 14.3438 8.01562 13.0078 8.71875 11.7422C9.42188 10.4766 10.4062 9.49219 11.6719 8.78906C12.9375 8.08594 14.2734 7.66406 15.75 7.66406ZM15.75 21.0234C17.1562 21.0234 18.4219 20.5312 19.4766 19.4766C20.4609 18.4922 21.0234 17.2266 21.0234 15.75C21.0234 14.3438 20.4609 13.0781 19.4766 12.0234C18.4219 11.0391 17.1562 10.4766 15.75 10.4766C14.2734 10.4766 13.0078 11.0391 12.0234 12.0234C10.9688 13.0781 10.4766 14.3438 10.4766 15.75C10.4766 17.2266 10.9688 18.4922 12.0234 19.4766C13.0078 20.5312 14.2734 21.0234 15.75 21.0234ZM26.0859 7.3125C26.0859 6.82031 25.875 6.39844 25.5234 5.97656C25.1016 5.625 24.6797 5.41406 24.1875 5.41406C23.625 5.41406 23.2031 5.625 22.8516 5.97656C22.4297 6.39844 22.2891 6.82031 22.2891 7.3125C22.2891 7.875 22.4297 8.29688 22.8516 8.64844C23.2031 9.07031 23.625 9.21094 24.1875 9.21094C24.6797 9.21094 25.1016 9.07031 25.4531 8.64844C25.8047 8.29688 26.0156 7.875 26.0859 7.3125ZM31.4297 9.21094C31.4297 10.5469 31.5 12.7266 31.5 15.75C31.5 18.8438 31.4297 21.0234 31.3594 22.3594C31.2891 23.6953 31.0781 24.8203 30.7969 25.8047C30.375 27 29.6719 28.0547 28.8281 28.8984C27.9844 29.7422 26.9297 30.375 25.8047 30.7969C24.8203 31.1484 23.625 31.3594 22.2891 31.4297C20.9531 31.5 18.7734 31.5 15.75 31.5C12.6562 31.5 10.4766 31.5 9.14062 31.4297C7.80469 31.3594 6.67969 31.1484 5.69531 30.7266C4.5 30.375 3.44531 29.7422 2.60156 28.8984C1.75781 28.0547 1.125 27 0.703125 25.8047C0.351562 24.8203 0.140625 23.6953 0.0703125 22.3594C0 21.0234 0 18.8438 0 15.75C0 12.7266 0 10.5469 0.0703125 9.21094C0.140625 7.875 0.351562 6.67969 0.703125 5.69531C1.125 4.57031 1.75781 3.51562 2.60156 2.67188C3.44531 1.82812 4.5 1.125 5.69531 0.703125C6.67969 0.421875 7.80469 0.210938 9.14062 0.140625C10.4766 0.0703125 12.6562 0 15.75 0C18.7734 0 20.9531 0.0703125 22.2891 0.140625C23.625 0.210938 24.8203 0.421875 25.8047 0.703125C26.9297 1.125 27.9844 1.82812 28.8281 2.67188C29.6719 3.51562 30.375 4.57031 30.7969 5.69531C31.0781 6.67969 31.2891 7.875 31.4297 9.21094ZM28.0547 25.0312C28.3359 24.2578 28.4766 22.9922 28.6172 21.2344C28.6172 20.25 28.6875 18.7734 28.6875 16.875V14.625C28.6875 12.7266 28.6172 11.25 28.6172 10.2656C28.4766 8.50781 28.3359 7.24219 28.0547 6.46875C27.4922 5.0625 26.4375 4.00781 25.0312 3.44531C24.2578 3.16406 22.9922 3.02344 21.2344 2.88281C20.1797 2.88281 18.7031 2.8125 16.875 2.8125H14.625C12.7266 2.8125 11.25 2.88281 10.2656 2.88281C8.50781 3.02344 7.24219 3.16406 6.46875 3.44531C4.99219 4.00781 4.00781 5.0625 3.44531 6.46875C3.16406 7.24219 2.95312 8.50781 2.88281 10.2656C2.8125 11.3203 2.8125 12.7969 2.8125 14.625V16.875C2.8125 18.7734 2.8125 20.25 2.88281 21.2344C2.95312 22.9922 3.16406 24.2578 3.44531 25.0312C4.00781 26.5078 5.0625 27.4922 6.46875 28.0547C7.24219 28.3359 8.50781 28.5469 10.2656 28.6172C11.25 28.6875 12.7266 28.6875 14.625 28.6875H16.875C18.7734 28.6875 20.25 28.6875 21.2344 28.6172C22.9922 28.5469 24.2578 28.3359 25.0312 28.0547C26.4375 27.4922 27.4922 26.4375 28.0547 25.0312Z" fill="#F50000"/>
</svg>
