<svg width="16" height="16" viewBox="0 0 16 16" fill="none" xmlns="http://www.w3.org/2000/svg">
<path d="M8 3.89286C8.71429 3.89286 9.39286 4.10714 10.0357 4.46429C10.6786 4.82143 11.1786 5.32143 11.5357 5.96429C11.8929 6.60714 12.1071 7.28571 12.1071 8C12.1071 8.75 11.8929 9.42857 11.5357 10.0714C11.1786 10.7143 10.6786 11.2143 10.0357 11.5714C9.39286 11.9286 8.71429 12.1071 8 12.1071C7.25 12.1071 6.57143 11.9286 5.92857 11.5714C5.28571 11.2143 4.78571 10.7143 4.42857 10.0714C4.07143 9.42857 3.89286 8.75 3.89286 8C3.89286 7.28571 4.07143 6.60714 4.42857 5.96429C4.78571 5.32143 5.28571 4.82143 5.92857 4.46429C6.57143 4.10714 7.25 3.89286 8 3.89286ZM8 10.6786C8.71429 10.6786 9.35714 10.4286 9.89286 9.89286C10.3929 9.39286 10.6786 8.75 10.6786 8C10.6786 7.28571 10.3929 6.64286 9.89286 6.10714C9.35714 5.60714 8.71429 5.32143 8 5.32143C7.25 5.32143 6.60714 5.60714 6.10714 6.10714C5.57143 6.64286 5.32143 7.28571 5.32143 8C5.32143 8.75 5.57143 9.39286 6.10714 9.89286C6.60714 10.4286 7.25 10.6786 8 10.6786ZM13.25 3.71429C13.25 3.46429 13.1429 3.25 12.9643 3.03571C12.75 2.85714 12.5357 2.75 12.2857 2.75C12 2.75 11.7857 2.85714 11.6071 3.03571C11.3929 3.25 11.3214 3.46429 11.3214 3.71429C11.3214 4 11.3929 4.21429 11.6071 4.39286C11.7857 4.60714 12 4.67857 12.2857 4.67857C12.5357 4.67857 12.75 4.60714 12.9286 4.39286C13.1071 4.21429 13.2143 4 13.25 3.71429ZM15.9643 4.67857C15.9643 5.35714 16 6.46429 16 8C16 9.57143 15.9643 10.6786 15.9286 11.3571C15.8929 12.0357 15.7857 12.6071 15.6429 13.1071C15.4286 13.7143 15.0714 14.25 14.6429 14.6786C14.2143 15.1071 13.6786 15.4286 13.1071 15.6429C12.6071 15.8214 12 15.9286 11.3214 15.9643C10.6429 16 9.53571 16 8 16C6.42857 16 5.32143 16 4.64286 15.9643C3.96429 15.9286 3.39286 15.8214 2.89286 15.6071C2.28571 15.4286 1.75 15.1071 1.32143 14.6786C0.892857 14.25 0.571429 13.7143 0.357143 13.1071C0.178571 12.6071 0.0714286 12.0357 0.0357143 11.3571C0 10.6786 0 9.57143 0 8C0 6.46429 0 5.35714 0.0357143 4.67857C0.0714286 4 0.178571 3.39286 0.357143 2.89286C0.571429 2.32143 0.892857 1.78571 1.32143 1.35714C1.75 0.928571 2.28571 0.571429 2.89286 0.357143C3.39286 0.214286 3.96429 0.107143 4.64286 0.0714286C5.32143 0.0357143 6.42857 0 8 0C9.53571 0 10.6429 0.0357143 11.3214 0.0714286C12 0.107143 12.6071 0.214286 13.1071 0.357143C13.6786 0.571429 14.2143 0.928571 14.6429 1.35714C15.0714 1.78571 15.4286 2.32143 15.6429 2.89286C15.7857 3.39286 15.8929 4 15.9643 4.67857ZM14.25 12.7143C14.3929 12.3214 14.4643 11.6786 14.5357 10.7857C14.5357 10.2857 14.5714 9.53572 14.5714 8.57143V7.42857C14.5714 6.46429 14.5357 5.71429 14.5357 5.21429C14.4643 4.32143 14.3929 3.67857 14.25 3.28571C13.9643 2.57143 13.4286 2.03571 12.7143 1.75C12.3214 1.60714 11.6786 1.53571 10.7857 1.46429C10.25 1.46429 9.5 1.42857 8.57143 1.42857H7.42857C6.46429 1.42857 5.71429 1.46429 5.21429 1.46429C4.32143 1.53571 3.67857 1.60714 3.28571 1.75C2.53571 2.03571 2.03571 2.57143 1.75 3.28571C1.60714 3.67857 1.5 4.32143 1.46429 5.21429C1.42857 5.75 1.42857 6.5 1.42857 7.42857V8.57143C1.42857 9.53572 1.42857 10.2857 1.46429 10.7857C1.5 11.6786 1.60714 12.3214 1.75 12.7143C2.03571 13.4643 2.57143 13.9643 3.28571 14.25C3.67857 14.3929 4.32143 14.5 5.21429 14.5357C5.71429 14.5714 6.46429 14.5714 7.42857 14.5714H8.57143C9.53572 14.5714 10.2857 14.5714 10.7857 14.5357C11.6786 14.5 12.3214 14.3929 12.7143 14.25C13.4286 13.9643 13.9643 13.4286 14.25 12.7143Z" fill="black"/>
</svg>
