<svg width="238" height="53" viewBox="0 0 238 53" fill="none" xmlns="http://www.w3.org/2000/svg">
<path d="M1.14 38.409C1.87467 38.409 2.46367 38.2507 2.907 37.934C3.35033 37.6047 3.69867 37.079 3.952 36.357C4.218 35.635 4.446 34.6217 4.636 33.317C4.87667 31.7717 5.06033 30.0807 5.187 28.244C5.32633 26.3947 5.45933 24.14 5.586 21.48H20.862V38.409H22.933V46.56H18.601V42H5.453V46.56H1.14V38.409ZM16.302 25.071H9.595C9.405 28.8583 9.158 31.835 8.854 34.001C8.71467 35.1537 8.531 36.0593 8.303 36.718C8.08767 37.364 7.74567 37.9277 7.277 38.409H16.302V25.071ZM30.506 33.013C30.6833 34.7103 31.2217 36.015 32.121 36.927C33.033 37.8263 34.2617 38.276 35.807 38.276C36.9217 38.276 37.8907 38.029 38.714 37.535C39.5373 37.0283 40.1707 36.3 40.614 35.35L45.136 36.718C44.6167 37.934 43.8947 38.9853 42.97 39.872C42.058 40.746 41.0067 41.4173 39.816 41.886C38.638 42.342 37.3903 42.57 36.073 42.57C34.021 42.57 32.2033 42.1203 30.62 41.221C29.0367 40.3217 27.8017 39.0677 26.915 37.459C26.041 35.8503 25.604 34.02 25.604 31.968C25.604 29.7513 26.0283 27.8133 26.877 26.154C27.7383 24.482 28.9417 23.19 30.487 22.278C32.0323 21.366 33.8057 20.91 35.807 20.91C37.783 20.91 39.493 21.347 40.937 22.221C42.381 23.095 43.4893 24.3427 44.262 25.964C45.0347 27.5727 45.421 29.4663 45.421 31.645C45.421 32.0757 45.402 32.5317 45.364 33.013H30.506ZM35.997 24.919C32.957 24.919 31.1647 26.4643 30.62 29.555H40.728C40.5253 27.959 40.0377 26.7873 39.265 26.04C38.505 25.2927 37.4157 24.919 35.997 24.919ZM47.7034 38.162C48.0834 38.2253 48.3874 38.257 48.6154 38.257C49.1094 38.257 49.4957 38.1493 49.7744 37.934C50.053 37.7187 50.2684 37.402 50.4204 36.984C50.585 36.566 50.737 35.977 50.8764 35.217C51.155 33.659 51.3957 31.7337 51.5984 29.441C51.801 27.1483 51.991 24.4947 52.1684 21.48H67.2734V42H62.7134V25.774H56.1964C55.753 31.3347 55.3477 35.065 54.9804 36.965C54.6257 38.8143 54.081 40.1697 53.3464 41.031C52.6117 41.8797 51.535 42.304 50.1164 42.304C49.3944 42.304 48.59 42.2027 47.7034 42V38.162ZM88.7802 24.729C89.1095 25.3877 89.3185 26.0717 89.4072 26.781C89.5085 27.4777 89.5592 28.3517 89.5592 29.403V42H85.5502V39.245C84.6762 40.3977 83.6628 41.24 82.5102 41.772C81.3575 42.304 79.9705 42.57 78.3492 42.57C76.9052 42.57 75.6638 42.2977 74.6252 41.753C73.5992 41.1957 72.8138 40.4483 72.2692 39.511C71.7372 38.5737 71.4712 37.5287 71.4712 36.376C71.4712 34.8687 71.8448 33.6083 72.5922 32.595C73.3522 31.5817 74.5365 30.7963 76.1452 30.239C77.0445 29.9477 78.0768 29.7007 79.2422 29.498C80.4202 29.2827 82.0985 29.0103 84.2772 28.681L85.0752 28.567C84.9865 27.3763 84.6065 26.5023 83.9352 25.945C83.2765 25.3877 82.2568 25.109 80.8762 25.109C79.8628 25.109 78.9382 25.3433 78.1022 25.812C77.2788 26.2807 76.7088 27.0027 76.3922 27.978L72.2122 26.667C72.7315 24.8683 73.7195 23.4623 75.1762 22.449C76.6328 21.423 78.5328 20.91 80.8762 20.91C82.7762 20.91 84.4038 21.2203 85.7592 21.841C87.1272 22.4617 88.1342 23.4243 88.7802 24.729ZM84.5622 35.521C84.8408 34.8497 84.9928 33.7857 85.0182 32.329C83.0295 32.6457 81.5982 32.8863 80.7242 33.051C79.8628 33.203 79.1028 33.393 78.4442 33.621C77.6208 33.925 77.0002 34.2923 76.5822 34.723C76.1642 35.1537 75.9552 35.6857 75.9552 36.319C75.9552 37.0917 76.2402 37.7187 76.8102 38.2C77.3928 38.6813 78.2098 38.922 79.2612 38.922C80.2365 38.922 81.0915 38.751 81.8262 38.409C82.5735 38.0543 83.1752 37.6173 83.6312 37.098C84.0872 36.5787 84.3975 36.053 84.5622 35.521ZM103.987 19.162C102.935 19.162 101.966 18.9087 101.08 18.402C100.206 17.8827 99.509 17.186 98.9897 16.312C98.483 15.4253 98.2297 14.4563 98.2297 13.405H101.802C101.802 14.013 102.011 14.5323 102.429 14.963C102.859 15.381 103.379 15.59 103.987 15.59C104.595 15.59 105.108 15.381 105.526 14.963C105.956 14.5323 106.172 14.013 106.172 13.405H109.744C109.744 14.4563 109.484 15.4253 108.965 16.312C108.458 17.186 107.761 17.8827 106.875 18.402C106.001 18.9087 105.038 19.162 103.987 19.162ZM107.901 42V28.605L98.1347 42H94.4677V21.48H98.8567V34.533L108.661 21.48H112.29V42H107.901Z" fill="#F50000"/>
<path d="M152.951 21.48C154.23 21.48 155.358 21.613 156.333 21.879C157.422 22.2083 158.322 22.81 159.031 23.684C159.74 24.5453 160.095 25.6727 160.095 27.066C160.095 28.624 159.588 29.8147 158.575 30.638C158.119 31.018 157.669 31.2713 157.226 31.398C157.745 31.4867 158.214 31.6323 158.632 31.835C159.392 32.215 159.994 32.7533 160.437 33.45C160.88 34.134 161.102 35.046 161.102 36.186C161.102 37.5793 160.766 38.7447 160.095 39.682C159.436 40.6193 158.467 41.2717 157.188 41.639C156.352 41.8797 155.193 42 153.711 42H143.622V21.48H152.951ZM152.058 29.954C152.983 29.954 153.679 29.8527 154.148 29.65C154.541 29.4853 154.838 29.213 155.041 28.833C155.256 28.453 155.364 28.0097 155.364 27.503C155.364 26.971 155.25 26.5087 155.022 26.116C154.794 25.7107 154.446 25.4383 153.977 25.299C153.546 25.147 152.875 25.071 151.963 25.071H148.258V29.954H152.058ZM153.388 38.466C154.034 38.466 154.61 38.371 155.117 38.181C155.548 38.029 155.871 37.7503 156.086 37.345C156.314 36.9397 156.428 36.49 156.428 35.996C156.428 35.4007 156.282 34.913 155.991 34.533C155.7 34.153 155.32 33.8933 154.851 33.754C154.509 33.6147 153.99 33.545 153.293 33.545H148.258V38.466H153.388ZM168.649 33.013C168.826 34.7103 169.364 36.015 170.264 36.927C171.176 37.8263 172.404 38.276 173.95 38.276C175.064 38.276 176.033 38.029 176.857 37.535C177.68 37.0283 178.313 36.3 178.757 35.35L183.279 36.718C182.759 37.934 182.037 38.9853 181.113 39.872C180.201 40.746 179.149 41.4173 177.959 41.886C176.781 42.342 175.533 42.57 174.216 42.57C172.164 42.57 170.346 42.1203 168.763 41.221C167.179 40.3217 165.944 39.0677 165.058 37.459C164.184 35.8503 163.747 34.02 163.747 31.968C163.747 29.7513 164.171 27.8133 165.02 26.154C165.881 24.482 167.084 23.19 168.63 22.278C170.175 21.366 171.948 20.91 173.95 20.91C175.926 20.91 177.636 21.347 179.08 22.221C180.524 23.095 181.632 24.3427 182.405 25.964C183.177 27.5727 183.564 29.4663 183.564 31.645C183.564 32.0757 183.545 32.5317 183.507 33.013H168.649ZM174.14 24.919C171.1 24.919 169.307 26.4643 168.763 29.555H178.871C178.668 27.959 178.18 26.7873 177.408 26.04C176.648 25.2927 175.558 24.919 174.14 24.919ZM209.805 42H187.708V21.48H192.097V37.934H197.892V21.48H202.281V37.934H208.076V21.48H212.465V37.934H214.384V46.313H209.805V42ZM235.217 42H230.828V28.605L221.062 42H217.395V21.48H221.784V34.533L231.588 21.48H235.217V42Z" fill="#F50000"/>
<circle cx="129" cy="5" r="5" fill="#F50000"/>
</svg>
