<svg width="209" height="30" viewBox="0 0 209 30" fill="none" xmlns="http://www.w3.org/2000/svg">
<path d="M0 22.647C0.65596 22.647 1.18186 22.5041 1.5777 22.2185C1.97353 21.9214 2.28455 21.4472 2.51074 20.7959C2.74824 20.1446 2.95182 19.2305 3.12146 18.0537C3.33635 16.6597 3.50034 15.1343 3.61343 13.4775C3.73784 11.8093 3.85659 9.77543 3.96969 7.37595H17.6091V22.647H19.4583V29.9997H15.5903V25.8863H3.85093V29.9997H0V22.647ZM13.5376 10.6153H7.54919C7.37955 14.0317 7.15901 16.7168 6.88758 18.6707C6.76317 19.7104 6.59918 20.5274 6.39561 21.1216C6.20334 21.7043 5.89798 22.2128 5.47952 22.647H13.5376V10.6153Z" fill="#F50000"/>
<path d="M26.2199 17.7794C26.3783 19.3105 26.8589 20.4874 27.6619 21.3101C28.4762 22.1214 29.5732 22.527 30.953 22.527C31.9483 22.527 32.8134 22.3042 33.5486 21.8586C34.2837 21.4015 34.8492 20.7445 35.245 19.8875L39.2826 21.1216C38.8189 22.2185 38.1742 23.1668 37.3486 23.9667C36.5343 24.7551 35.5956 25.3607 34.5325 25.7834C33.4807 26.1948 32.3667 26.4004 31.1905 26.4004C29.3583 26.4004 27.7354 25.9948 26.3217 25.1836C24.908 24.3723 23.8053 23.2411 23.0136 21.79C22.2333 20.3389 21.8431 18.6878 21.8431 16.8368C21.8431 14.8372 22.222 13.089 22.9797 11.5922C23.7488 10.0839 24.8232 8.91847 26.203 8.09579C27.5827 7.27311 29.1661 6.86177 30.953 6.86177C32.7173 6.86177 34.2441 7.25597 35.5334 8.04438C36.8227 8.83278 37.8123 9.95825 38.5022 11.4208C39.1921 12.8719 39.537 14.5801 39.537 16.5454C39.537 16.9339 39.5201 17.3452 39.4861 17.7794H26.2199ZM31.1226 10.4781C28.4083 10.4781 26.808 11.8721 26.3217 14.6601H35.3468C35.1658 13.2204 34.7304 12.1635 34.0405 11.4893C33.362 10.8152 32.3893 10.4781 31.1226 10.4781Z" fill="#F50000"/>
<path d="M41.5749 22.4241C41.9142 22.4813 42.1856 22.5098 42.3892 22.5098C42.8303 22.5098 43.1752 22.4127 43.424 22.2185C43.6728 22.0242 43.8651 21.7386 44.0008 21.3615C44.1478 20.9845 44.2835 20.4531 44.4079 19.7676C44.6568 18.3622 44.8716 16.6254 45.0526 14.5573C45.2336 12.4891 45.4032 10.0954 45.5615 7.37595H59.0483V25.8863H54.9768V11.2494H49.158C48.7622 16.2655 48.4003 19.6305 48.0723 21.3444C47.7556 23.0126 47.2693 24.2352 46.6133 25.0122C45.9574 25.7777 44.9961 26.1605 43.7294 26.1605C43.0847 26.1605 42.3666 26.0691 41.5749 25.8863V22.4241Z" fill="#F50000"/>
<path d="M78.251 10.3067C78.5451 10.9009 78.7317 11.5179 78.8108 12.1578C78.9013 12.7862 78.9466 13.5746 78.9466 14.523V25.8863H75.3671V23.4011C74.5867 24.4409 73.6819 25.2007 72.6527 25.6806C71.6236 26.1605 70.3851 26.4004 68.9375 26.4004C67.6482 26.4004 66.5399 26.1548 65.6125 25.6634C64.6964 25.1607 63.9952 24.4866 63.5089 23.641C63.0339 22.7955 62.7964 21.8528 62.7964 20.8131C62.7964 19.4534 63.13 18.3165 63.7973 17.4024C64.4759 16.4883 65.5333 15.7799 66.9696 15.2771C67.7726 15.0143 68.6944 14.7915 69.7348 14.6087C70.7866 14.4144 72.2852 14.1688 74.2304 13.8717L74.9429 13.7689C74.8638 12.6948 74.5245 11.9064 73.9251 11.4037C73.337 10.9009 72.4265 10.6495 71.1938 10.6495C70.289 10.6495 69.4634 10.8609 68.717 11.2837C67.9818 11.7064 67.4729 12.3577 67.1902 13.2375L63.458 12.0549C63.9217 10.4324 64.8038 9.16413 66.1044 8.25005C67.4051 7.32453 69.1015 6.86177 71.1938 6.86177C72.8902 6.86177 74.3435 7.14171 75.5537 7.70159C76.7751 8.26147 77.6742 9.12986 78.251 10.3067ZM74.4849 20.0418C74.7337 19.4362 74.8694 18.4764 74.892 17.1624C73.1164 17.4481 71.8384 17.6652 71.0581 17.8137C70.289 17.9508 69.6104 18.1222 69.0223 18.3279C68.2872 18.6021 67.733 18.9335 67.3598 19.322C66.9866 19.7104 66.8 20.1903 66.8 20.7616C66.8 21.4586 67.0545 22.0242 67.5634 22.4584C68.0836 22.8926 68.8131 23.1097 69.7518 23.1097C70.6227 23.1097 71.3861 22.9555 72.042 22.647C72.7093 22.327 73.2465 21.9328 73.6536 21.4643C74.0608 20.9959 74.3379 20.5217 74.4849 20.0418Z" fill="#F50000"/>
<path d="M91.8284 5.28497C90.8897 5.28497 90.0245 5.05645 89.2329 4.5994C88.4525 4.13093 87.8305 3.50249 87.3668 2.71409C86.9144 1.91426 86.6882 1.04017 86.6882 0.0917969H89.8775C89.8775 0.640252 90.0641 1.10872 90.4373 1.49721C90.8219 1.87427 91.2856 2.0628 91.8284 2.0628C92.3713 2.0628 92.8293 1.87427 93.2025 1.49721C93.5871 1.10872 93.7793 0.640252 93.7793 0.0917969H96.9687C96.9687 1.04017 96.7368 1.91426 96.2731 2.71409C95.8207 3.50249 95.1987 4.13093 94.407 4.5994C93.6267 5.05645 92.7671 5.28497 91.8284 5.28497ZM95.3231 25.8863V13.8031L86.6034 25.8863H83.3292V7.37595H87.248V19.1506L96.0017 7.37595H99.2419V25.8863H95.3231Z" fill="#F50000"/>
<path d="M135.547 7.37595C136.689 7.37595 137.696 7.49592 138.567 7.73587C139.539 8.03295 140.342 8.57569 140.976 9.36409C141.609 10.1411 141.926 11.158 141.926 12.4149C141.926 13.8203 141.473 14.8943 140.568 15.637C140.161 15.9798 139.76 16.2083 139.364 16.3226C139.828 16.4026 140.246 16.534 140.619 16.7168C141.298 17.0596 141.835 17.5452 142.231 18.1736C142.627 18.7906 142.825 19.6133 142.825 20.6417C142.825 21.8985 142.525 22.9497 141.926 23.7953C141.338 24.6408 140.472 25.2293 139.33 25.5606C138.584 25.7777 137.549 25.8863 136.226 25.8863H127.217V7.37595H135.547ZM134.75 15.02C135.575 15.02 136.197 14.9286 136.616 14.7458C136.966 14.5973 137.232 14.3516 137.413 14.0088C137.605 13.666 137.702 13.2661 137.702 12.8091C137.702 12.3292 137.6 11.9121 137.396 11.5579C137.193 11.1923 136.882 10.9466 136.463 10.8209C136.079 10.6838 135.479 10.6153 134.665 10.6153H131.357V15.02H134.75ZM135.937 22.6984C136.514 22.6984 137.029 22.6127 137.481 22.4413C137.865 22.3042 138.154 22.0528 138.346 21.6872C138.55 21.3215 138.652 20.9159 138.652 20.4703C138.652 19.9332 138.521 19.4933 138.261 19.1506C138.001 18.8078 137.662 18.5735 137.243 18.4479C136.938 18.3222 136.474 18.2593 135.852 18.2593H131.357V22.6984H135.937Z" fill="#F50000"/>
<path d="M149.563 17.7794C149.721 19.3105 150.202 20.4874 151.005 21.3101C151.819 22.1214 152.916 22.527 154.296 22.527C155.291 22.527 156.156 22.3042 156.892 21.8586C157.627 21.4015 158.192 20.7445 158.588 19.8875L162.626 21.1216C162.162 22.2185 161.517 23.1668 160.692 23.9667C159.877 24.7551 158.939 25.3607 157.875 25.7834C156.824 26.1948 155.71 26.4004 154.533 26.4004C152.701 26.4004 151.078 25.9948 149.665 25.1836C148.251 24.3723 147.148 23.2411 146.357 21.79C145.576 20.3389 145.186 18.6878 145.186 16.8368C145.186 14.8372 145.565 13.089 146.323 11.5922C147.092 10.0839 148.166 8.91847 149.546 8.09579C150.926 7.27311 152.509 6.86177 154.296 6.86177C156.06 6.86177 157.587 7.25597 158.876 8.04438C160.166 8.83278 161.155 9.95825 161.845 11.4208C162.535 12.8719 162.88 14.5801 162.88 16.5454C162.88 16.9339 162.863 17.3452 162.829 17.7794H149.563ZM154.466 10.4781C151.751 10.4781 150.151 11.8721 149.665 14.6601H158.69C158.509 13.2204 158.073 12.1635 157.383 11.4893C156.705 10.8152 155.732 10.4781 154.466 10.4781Z" fill="#F50000"/>
<path d="M186.31 25.8863H166.58V7.37595H170.499V22.2185H175.673V7.37595H179.592V22.2185H184.766V7.37595H188.685V22.2185H190.398V29.7768H186.31V25.8863Z" fill="#F50000"/>
<path d="M209 25.8863H205.081V13.8031L196.361 25.8863H193.087V7.37595H197.006V19.1506L205.76 7.37595H209V25.8863Z" fill="#F50000"/>
</svg>
