<svg width="209" height="43" viewBox="0 0 209 43" fill="none" xmlns="http://www.w3.org/2000/svg">
<path d="M0 34.6489C0.65596 34.6489 1.18186 34.5061 1.5777 34.2204C1.97353 33.9233 2.28455 33.4492 2.51074 32.7979C2.74824 32.1466 2.95182 31.2325 3.12146 30.0556C3.33635 28.6616 3.50034 27.1362 3.61343 25.4794C3.73784 23.8112 3.85659 21.7774 3.96969 19.3779H17.6091V34.6489H19.4583V42.0016H15.5903V37.8882H3.85093V42.0016H0V34.6489ZM13.5376 22.6172H7.54919C7.37955 26.0336 7.15901 28.7188 6.88758 30.6726C6.76317 31.7124 6.59918 32.5294 6.39561 33.1235C6.20334 33.7063 5.89798 34.2147 5.47952 34.6489H13.5376V22.6172Z" fill="#F50000"/>
<path d="M26.2199 29.7814C26.3783 31.3125 26.8589 32.4894 27.6619 33.312C28.4762 34.1233 29.5732 34.5289 30.953 34.5289C31.9483 34.5289 32.8134 34.3061 33.5486 33.8605C34.2837 33.4035 34.8492 32.7465 35.245 31.8895L39.2826 33.1235C38.8189 34.2204 38.1742 35.1688 37.3486 35.9686C36.5343 36.757 35.5956 37.3626 34.5325 37.7854C33.4807 38.1967 32.3667 38.4024 31.1905 38.4024C29.3583 38.4024 27.7354 37.9968 26.3217 37.1855C24.908 36.3743 23.8053 35.2431 23.0136 33.7919C22.2333 32.3408 21.8431 30.6898 21.8431 28.8387C21.8431 26.8392 22.222 25.091 22.9797 23.5941C23.7488 22.0859 24.8232 20.9204 26.203 20.0977C27.5827 19.2751 29.1661 18.8637 30.953 18.8637C32.7173 18.8637 34.2441 19.2579 35.5334 20.0463C36.8227 20.8347 37.8123 21.9602 38.5022 23.4227C39.1921 24.8739 39.537 26.5821 39.537 28.5474C39.537 28.9358 39.5201 29.3472 39.4861 29.7814H26.2199ZM31.1226 22.4801C28.4083 22.4801 26.808 23.8741 26.3217 26.6621H35.3468C35.1658 25.2224 34.7304 24.1654 34.0405 23.4913C33.362 22.8172 32.3893 22.4801 31.1226 22.4801Z" fill="#F50000"/>
<path d="M41.5749 34.4261C41.9142 34.4832 42.1856 34.5118 42.3892 34.5118C42.8303 34.5118 43.1752 34.4147 43.424 34.2204C43.6728 34.0262 43.8651 33.7405 44.0008 33.3635C44.1478 32.9864 44.2835 32.4551 44.4079 31.7695C44.6568 30.3641 44.8716 28.6273 45.0526 26.5592C45.2336 24.4911 45.4032 22.0973 45.5615 19.3779H59.0483V37.8882H54.9768V23.2514H49.158C48.7622 28.2674 48.4003 31.6324 48.0723 33.3463C47.7556 35.0145 47.2693 36.2371 46.6133 37.0141C45.9574 37.7797 44.9961 38.1624 43.7294 38.1624C43.0847 38.1624 42.3666 38.071 41.5749 37.8882V34.4261Z" fill="#F50000"/>
<path d="M78.251 22.3087C78.5451 22.9029 78.7317 23.5199 78.8108 24.1597C78.9013 24.7882 78.9466 25.5766 78.9466 26.5249V37.8882H75.3671V35.403C74.5867 36.4428 73.6819 37.2026 72.6527 37.6825C71.6236 38.1624 70.3851 38.4024 68.9375 38.4024C67.6482 38.4024 66.5399 38.1567 65.6125 37.6654C64.6964 37.1626 63.9952 36.4885 63.5089 35.643C63.0339 34.7974 62.7964 33.8548 62.7964 32.815C62.7964 31.4553 63.13 30.3184 63.7973 29.4043C64.4759 28.4902 65.5333 27.7818 66.9696 27.2791C67.7726 27.0163 68.6944 26.7935 69.7348 26.6106C70.7866 26.4164 72.2852 26.1707 74.2304 25.8736L74.9429 25.7708C74.8638 24.6968 74.5245 23.9084 73.9251 23.4056C73.337 22.9029 72.4265 22.6515 71.1938 22.6515C70.289 22.6515 69.4634 22.8629 68.717 23.2856C67.9818 23.7084 67.4729 24.3597 67.1902 25.2395L63.458 24.0569C63.9217 22.4344 64.8038 21.1661 66.1044 20.252C67.4051 19.3265 69.1015 18.8637 71.1938 18.8637C72.8902 18.8637 74.3435 19.1437 75.5537 19.7035C76.7751 20.2634 77.6742 21.1318 78.251 22.3087ZM74.4849 32.0438C74.7337 31.4382 74.8694 30.4784 74.892 29.1644C73.1164 29.45 71.8384 29.6671 71.0581 29.8157C70.289 29.9528 69.6104 30.1242 69.0223 30.3298C68.2872 30.6041 67.733 30.9354 67.3598 31.3239C66.9866 31.7124 66.8 32.1923 66.8 32.7636C66.8 33.4606 67.0545 34.0262 67.5634 34.4604C68.0836 34.8946 68.8131 35.1117 69.7518 35.1117C70.6227 35.1117 71.3861 34.9574 72.042 34.6489C72.7093 34.329 73.2465 33.9348 73.6536 33.4663C74.0608 32.9978 74.3379 32.5236 74.4849 32.0438Z" fill="#F50000"/>
<path d="M91.8284 17.2869C90.8897 17.2869 90.0245 17.0584 89.2329 16.6014C88.4525 16.1329 87.8305 15.5044 87.3668 14.716C86.9144 13.9162 86.6882 13.0421 86.6882 12.0938H89.8775C89.8775 12.6422 90.0641 13.1107 90.4373 13.4992C90.8219 13.8762 91.2856 14.0648 91.8284 14.0648C92.3713 14.0648 92.8293 13.8762 93.2025 13.4992C93.5871 13.1107 93.7793 12.6422 93.7793 12.0938H96.9687C96.9687 13.0421 96.7368 13.9162 96.2731 14.716C95.8207 15.5044 95.1987 16.1329 94.407 16.6014C93.6267 17.0584 92.7671 17.2869 91.8284 17.2869ZM95.3231 37.8882V25.8051L86.6034 37.8882H83.3292V19.3779H87.248V31.1525L96.0017 19.3779H99.2419V37.8882H95.3231Z" fill="#F50000"/>
<path d="M135.547 19.3779C136.689 19.3779 137.696 19.4979 138.567 19.7378C139.539 20.0349 140.342 20.5776 140.976 21.366C141.609 22.143 141.926 23.1599 141.926 24.4168C141.926 25.8222 141.473 26.8963 140.568 27.639C140.161 27.9818 139.76 28.2103 139.364 28.3245C139.828 28.4045 140.246 28.5359 140.619 28.7188C141.298 29.0615 141.835 29.5471 142.231 30.1756C142.627 30.7926 142.825 31.6153 142.825 32.6436C142.825 33.9005 142.525 34.9517 141.926 35.7972C141.338 36.6428 140.472 37.2312 139.33 37.5626C138.584 37.7797 137.549 37.8882 136.226 37.8882H127.217V19.3779H135.547ZM134.75 27.022C135.575 27.022 136.197 26.9306 136.616 26.7477C136.966 26.5992 137.232 26.3535 137.413 26.0108C137.605 25.668 137.702 25.2681 137.702 24.811C137.702 24.3311 137.6 23.9141 137.396 23.5599C137.193 23.1942 136.882 22.9486 136.463 22.8229C136.079 22.6858 135.479 22.6172 134.665 22.6172H131.357V27.022H134.75ZM135.937 34.7003C136.514 34.7003 137.029 34.6146 137.481 34.4432C137.865 34.3061 138.154 34.0547 138.346 33.6891C138.55 33.3235 138.652 32.9178 138.652 32.4722C138.652 31.9352 138.521 31.4953 138.261 31.1525C138.001 30.8097 137.662 30.5755 137.243 30.4498C136.938 30.3241 136.474 30.2613 135.852 30.2613H131.357V34.7003H135.937Z" fill="#F50000"/>
<path d="M149.563 29.7814C149.721 31.3125 150.202 32.4894 151.005 33.312C151.819 34.1233 152.916 34.5289 154.296 34.5289C155.291 34.5289 156.156 34.3061 156.892 33.8605C157.627 33.4035 158.192 32.7465 158.588 31.8895L162.626 33.1235C162.162 34.2204 161.517 35.1688 160.692 35.9686C159.877 36.757 158.939 37.3626 157.875 37.7854C156.824 38.1967 155.71 38.4024 154.533 38.4024C152.701 38.4024 151.078 37.9968 149.665 37.1855C148.251 36.3743 147.148 35.2431 146.357 33.7919C145.576 32.3408 145.186 30.6898 145.186 28.8387C145.186 26.8392 145.565 25.091 146.323 23.5941C147.092 22.0859 148.166 20.9204 149.546 20.0977C150.926 19.2751 152.509 18.8637 154.296 18.8637C156.06 18.8637 157.587 19.2579 158.876 20.0463C160.166 20.8347 161.155 21.9602 161.845 23.4227C162.535 24.8739 162.88 26.5821 162.88 28.5474C162.88 28.9358 162.863 29.3472 162.829 29.7814H149.563ZM154.466 22.4801C151.751 22.4801 150.151 23.8741 149.665 26.6621H158.69C158.509 25.2224 158.073 24.1654 157.383 23.4913C156.705 22.8172 155.732 22.4801 154.466 22.4801Z" fill="#F50000"/>
<path d="M186.31 37.8882H166.58V19.3779H170.499V34.2204H175.673V19.3779H179.592V34.2204H184.766V19.3779H188.685V34.2204H190.398V41.7788H186.31V37.8882Z" fill="#F50000"/>
<path d="M209 37.8882H205.081V25.8051L196.361 37.8882H193.087V19.3779H197.006V31.1525L205.76 19.3779H209V37.8882Z" fill="#F50000"/>
<circle cx="115.5" cy="4.5" r="4.5" fill="black"/>
</svg>
