<svg width="604" height="459" viewBox="0 0 604 459" fill="none" xmlns="http://www.w3.org/2000/svg">
<path d="M301.134 161.375L301.788 161.375L301.788 190.273L271.279 190.273C254.674 190.273 239.841 179.887 234.162 164.283L230.299 153.669C241.538 146.78 247.295 134.237 243.253 123.13C239.211 112.023 226.737 106.115 213.699 108.063L210.513 99.3086C204.831 83.6968 209.525 66.1982 222.257 55.5261L244.124 37.1984L261.469 57.8697L261.694 58.1379L262.023 58.0181L347.058 27.0681L384.52 129.993L300.963 160.405L301.134 161.375Z" fill="white" stroke="black"/>
<path d="M303.041 159.666L290.301 165.07" stroke="black"/>
<mask id="path-3-inside-1" fill="white">
<path fill-rule="evenodd" clip-rule="evenodd" d="M404.023 236.863C404.371 235.304 404.626 233.707 404.782 232.076C406.81 210.852 391.249 192.003 370.025 189.974C348.801 187.946 329.951 203.507 327.923 224.731C325.895 245.955 341.456 264.805 362.68 266.833C379.614 268.451 395.036 258.873 401.609 244.154C401.759 244.187 401.912 244.211 402.069 244.226C404.191 244.429 406.076 242.873 406.279 240.75C406.44 239.061 405.488 237.523 404.023 236.863Z"/>
</mask>
<path fill-rule="evenodd" clip-rule="evenodd" d="M404.023 236.863C404.371 235.304 404.626 233.707 404.782 232.076C406.81 210.852 391.249 192.003 370.025 189.974C348.801 187.946 329.951 203.507 327.923 224.731C325.895 245.955 341.456 264.805 362.68 266.833C379.614 268.451 395.036 258.873 401.609 244.154C401.759 244.187 401.912 244.211 402.069 244.226C404.191 244.429 406.076 242.873 406.279 240.75C406.44 239.061 405.488 237.523 404.023 236.863Z" fill="white"/>
<path d="M404.023 236.863L403.047 236.645L402.87 237.44L403.612 237.774L404.023 236.863ZM401.609 244.154L401.822 243.177L401.028 243.004L400.696 243.746L401.609 244.154ZM403.787 231.981C403.635 233.57 403.386 235.127 403.047 236.645L404.999 237.081C405.356 235.482 405.618 233.843 405.778 232.171L403.787 231.981ZM369.93 190.97C390.604 192.945 405.762 211.307 403.787 231.981L405.778 232.171C407.858 210.398 391.894 191.06 370.12 188.979L369.93 190.97ZM328.919 224.826C330.894 204.152 349.256 188.994 369.93 190.97L370.12 188.979C348.346 186.898 329.009 202.862 326.928 224.636L328.919 224.826ZM362.775 265.838C342.101 263.862 326.943 245.501 328.919 224.826L326.928 224.636C324.847 246.41 340.811 265.748 362.585 267.829L362.775 265.838ZM400.696 243.746C394.293 258.085 379.269 267.414 362.775 265.838L362.585 267.829C379.959 269.489 395.78 259.661 402.522 244.562L400.696 243.746ZM402.164 243.23C402.047 243.219 401.933 243.201 401.822 243.177L401.396 245.131C401.585 245.172 401.778 245.203 401.974 245.221L402.164 243.23ZM405.284 240.655C405.133 242.228 403.737 243.381 402.164 243.23L401.974 245.221C404.646 245.477 407.019 243.517 407.275 240.845L405.284 240.655ZM403.612 237.774C404.699 238.264 405.403 239.405 405.284 240.655L407.275 240.845C407.478 238.718 406.277 236.782 404.434 235.951L403.612 237.774Z" fill="black" mask="url(#path-3-inside-1)"/>
<circle cx="395.049" cy="233.154" r="3.86045" transform="rotate(5.45892 395.049 233.154)" fill="black"/>
<path d="M374.515 263.697C372.2 268.44 346.285 260.611 344.07 260.788C319.476 258.437 329.166 223.155 329.864 215.854C330.562 208.552 334.428 191.468 357.652 187.87C380.876 184.273 387.611 189.729 401.072 196.038C405.339 198.038 409.092 203.589 405.998 207.559C402.904 211.529 382.471 221.683 371.838 223.381C361.205 225.08 377.408 257.769 374.515 263.697Z" fill="black"/>
<path d="M374.475 226.908C371.537 226.628 369.224 228.338 368.771 231.343C368.139 235.537 370.895 237.831 374.666 238.191" stroke="black" stroke-linecap="round" stroke-linejoin="round"/>
<path d="M374.173 229.632C372.824 229.503 371.748 230.433 371.518 232.042C371.197 234.288 372.448 235.494 374.18 235.66" stroke="black" stroke-linecap="round" stroke-linejoin="round"/>
<mask id="path-9-inside-2" fill="white">
<path fill-rule="evenodd" clip-rule="evenodd" d="M428.11 220.358L400.195 289.449C397.479 296.171 389.829 299.418 383.108 296.702C376.387 293.987 373.14 286.337 375.855 279.616L402.06 214.757L378.243 149.32C375.763 142.508 379.276 134.976 386.087 132.497C392.899 130.017 400.431 133.53 402.911 140.341L428.455 210.525C429.667 213.855 429.447 217.358 428.11 220.358Z"/>
</mask>
<path fill-rule="evenodd" clip-rule="evenodd" d="M428.11 220.358L400.195 289.449C397.479 296.171 389.829 299.418 383.108 296.702C376.387 293.987 373.14 286.337 375.855 279.616L402.06 214.757L378.243 149.32C375.763 142.508 379.276 134.976 386.087 132.497C392.899 130.017 400.431 133.53 402.911 140.341L428.455 210.525C429.667 213.855 429.447 217.358 428.11 220.358Z" fill="black"/>
<path d="M428.11 220.358L427.196 219.951L427.189 219.967L427.183 219.983L428.11 220.358ZM400.195 289.449L399.268 289.075L399.268 289.075L400.195 289.449ZM383.108 296.702L382.734 297.629L382.734 297.629L383.108 296.702ZM375.855 279.616L374.928 279.241L374.928 279.241L375.855 279.616ZM402.06 214.757L402.987 215.132L403.131 214.776L403 214.415L402.06 214.757ZM402.911 140.341L401.971 140.684L402.911 140.341ZM428.455 210.525L429.395 210.183L428.455 210.525ZM427.183 219.983L399.268 289.075L401.122 289.824L429.037 220.733L427.183 219.983ZM399.268 289.075C396.759 295.284 389.692 298.284 383.483 295.775L382.734 297.629C389.967 300.552 398.2 297.057 401.122 289.824L399.268 289.075ZM383.483 295.775C377.274 293.266 374.274 286.199 376.783 279.99L374.928 279.241C372.006 286.474 375.5 294.707 382.734 297.629L383.483 295.775ZM376.783 279.99L402.987 215.132L401.133 214.383L374.928 279.241L376.783 279.99ZM403 214.415L379.182 148.978L377.303 149.662L401.12 215.099L403 214.415ZM379.182 148.978C376.892 142.685 380.137 135.727 386.429 133.436L385.745 131.557C378.415 134.225 374.635 142.331 377.303 149.662L379.182 148.978ZM386.429 133.436C392.722 131.146 399.68 134.391 401.971 140.684L403.85 139.999C401.182 132.669 393.076 128.889 385.745 131.557L386.429 133.436ZM401.971 140.684L427.516 210.867L429.395 210.183L403.85 139.999L401.971 140.684ZM427.516 210.867C428.635 213.944 428.433 217.178 427.196 219.951L429.023 220.765C430.462 217.538 430.699 213.767 429.395 210.183L427.516 210.867Z" fill="black" mask="url(#path-9-inside-2)"/>
<mask id="path-11-outside-3" maskUnits="userSpaceOnUse" x="366.849" y="110.356" width="33" height="33" fill="black">
<rect fill="white" x="366.849" y="110.356" width="33" height="33"/>
<path fill-rule="evenodd" clip-rule="evenodd" d="M380.091 112.283C379.115 113.406 379.234 115.108 380.357 116.084L382.109 117.607C381.978 117.641 381.849 117.678 381.721 117.716L376.943 113.563C375.82 112.587 374.118 112.706 373.141 113.829C372.165 114.952 372.284 116.654 373.407 117.63L376.789 120.57C376.597 120.752 376.41 120.94 376.23 121.134L374.625 119.739C373.502 118.763 371.8 118.882 370.824 120.005C369.847 121.128 369.966 122.83 371.089 123.806L373.473 125.878C373.321 126.367 373.199 126.869 373.108 127.381L372.311 126.689C371.188 125.712 369.486 125.832 368.51 126.955C367.533 128.078 367.652 129.78 368.775 130.756L374.648 135.861C376.802 139.48 380.753 141.905 385.271 141.905C390.12 141.905 394.317 139.111 396.339 135.045C396.749 134.562 397.015 133.948 397.062 133.268L397.064 133.241C397.428 132.076 397.624 130.837 397.624 129.552C397.624 128.869 397.569 128.199 397.463 127.546L397.926 120.92C398.045 119.223 396.765 117.751 395.068 117.632C393.837 117.546 392.725 118.195 392.161 119.205L383.893 112.017C382.77 111.041 381.068 111.16 380.091 112.283Z"/>
</mask>
<path fill-rule="evenodd" clip-rule="evenodd" d="M380.091 112.283C379.115 113.406 379.234 115.108 380.357 116.084L382.109 117.607C381.978 117.641 381.849 117.678 381.721 117.716L376.943 113.563C375.82 112.587 374.118 112.706 373.141 113.829C372.165 114.952 372.284 116.654 373.407 117.63L376.789 120.57C376.597 120.752 376.41 120.94 376.23 121.134L374.625 119.739C373.502 118.763 371.8 118.882 370.824 120.005C369.847 121.128 369.966 122.83 371.089 123.806L373.473 125.878C373.321 126.367 373.199 126.869 373.108 127.381L372.311 126.689C371.188 125.712 369.486 125.832 368.51 126.955C367.533 128.078 367.652 129.78 368.775 130.756L374.648 135.861C376.802 139.48 380.753 141.905 385.271 141.905C390.12 141.905 394.317 139.111 396.339 135.045C396.749 134.562 397.015 133.948 397.062 133.268L397.064 133.241C397.428 132.076 397.624 130.837 397.624 129.552C397.624 128.869 397.569 128.199 397.463 127.546L397.926 120.92C398.045 119.223 396.765 117.751 395.068 117.632C393.837 117.546 392.725 118.195 392.161 119.205L383.893 112.017C382.77 111.041 381.068 111.16 380.091 112.283Z" fill="white"/>
<path d="M380.357 116.084L381.013 115.33L381.013 115.33L380.357 116.084ZM382.109 117.607L382.364 118.574L384.19 118.092L382.765 116.852L382.109 117.607ZM381.721 117.716L381.065 118.471L381.48 118.832L382.008 118.674L381.721 117.716ZM376.943 113.563L377.599 112.808L377.599 112.808L376.943 113.563ZM373.141 113.829L372.387 113.173L372.387 113.173L373.141 113.829ZM373.407 117.63L372.751 118.385L372.751 118.385L373.407 117.63ZM376.789 120.57L377.476 121.297L378.278 120.54L377.445 119.816L376.789 120.57ZM376.23 121.134L375.574 121.889L376.303 122.523L376.961 121.816L376.23 121.134ZM374.625 119.739L375.281 118.984L375.281 118.984L374.625 119.739ZM370.824 120.005L370.069 119.349L370.069 119.349L370.824 120.005ZM371.089 123.806L370.433 124.561L370.433 124.561L371.089 123.806ZM373.473 125.878L374.428 126.175L374.622 125.552L374.129 125.124L373.473 125.878ZM373.108 127.381L372.452 128.136L373.784 129.294L374.092 127.556L373.108 127.381ZM372.311 126.689L371.655 127.444L371.655 127.444L372.311 126.689ZM368.51 126.955L367.755 126.299L367.755 126.299L368.51 126.955ZM368.775 130.756L369.432 130.001L369.432 130.001L368.775 130.756ZM374.648 135.861L375.507 135.349L375.425 135.212L375.304 135.106L374.648 135.861ZM396.339 135.045L395.577 134.398L395.498 134.491L395.443 134.6L396.339 135.045ZM397.062 133.268L396.065 133.198L396.065 133.198L397.062 133.268ZM397.064 133.241L396.11 132.943L396.075 133.054L396.067 133.171L397.064 133.241ZM397.463 127.546L396.465 127.477L396.457 127.593L396.476 127.708L397.463 127.546ZM397.926 120.92L396.928 120.85L396.928 120.85L397.926 120.92ZM395.068 117.632L394.998 118.629L394.998 118.629L395.068 117.632ZM392.161 119.205L391.505 119.96L392.434 120.767L393.034 119.692L392.161 119.205ZM383.893 112.017L384.549 111.262L384.549 111.262L383.893 112.017ZM381.013 115.33C380.307 114.716 380.232 113.645 380.846 112.939L379.337 111.627C377.998 113.167 378.161 115.501 379.701 116.839L381.013 115.33ZM382.765 116.852L381.013 115.33L379.701 116.839L381.453 118.362L382.765 116.852ZM382.008 118.674C382.126 118.639 382.244 118.605 382.364 118.574L381.853 116.64C381.713 116.677 381.573 116.717 381.434 116.758L382.008 118.674ZM376.287 114.318L381.065 118.471L382.377 116.962L377.599 112.808L376.287 114.318ZM373.896 114.485C374.51 113.779 375.581 113.704 376.287 114.318L377.599 112.808C376.059 111.47 373.725 111.633 372.387 113.173L373.896 114.485ZM374.063 116.876C373.357 116.262 373.282 115.191 373.896 114.485L372.387 113.173C371.048 114.713 371.211 117.046 372.751 118.385L374.063 116.876ZM377.445 119.816L374.063 116.876L372.751 118.385L376.133 121.325L377.445 119.816ZM376.961 121.816C377.127 121.637 377.299 121.465 377.476 121.297L376.103 119.843C375.895 120.04 375.693 120.243 375.498 120.452L376.961 121.816ZM373.969 120.494L375.574 121.889L376.886 120.379L375.281 118.984L373.969 120.494ZM371.578 120.661C372.192 119.955 373.263 119.88 373.969 120.494L375.281 118.984C373.741 117.646 371.408 117.809 370.069 119.349L371.578 120.661ZM371.745 123.052C371.039 122.438 370.964 121.367 371.578 120.661L370.069 119.349C368.73 120.889 368.893 123.222 370.433 124.561L371.745 123.052ZM374.129 125.124L371.745 123.052L370.433 124.561L372.817 126.633L374.129 125.124ZM374.092 127.556C374.176 127.085 374.288 126.624 374.428 126.175L372.518 125.581C372.354 126.11 372.221 126.653 372.123 127.207L374.092 127.556ZM371.655 127.444L372.452 128.136L373.764 126.627L372.967 125.934L371.655 127.444ZM369.264 127.611C369.878 126.904 370.949 126.83 371.655 127.444L372.967 125.934C371.427 124.595 369.094 124.759 367.755 126.299L369.264 127.611ZM369.432 130.001C368.725 129.387 368.65 128.317 369.264 127.611L367.755 126.299C366.416 127.839 366.579 130.172 368.119 131.511L369.432 130.001ZM375.304 135.106L369.432 130.001L368.119 131.511L373.992 136.616L375.304 135.106ZM385.271 140.905C381.12 140.905 377.489 138.679 375.507 135.349L373.789 136.372C376.116 140.282 380.386 142.905 385.271 142.905V140.905ZM395.443 134.6C393.584 138.339 389.726 140.905 385.271 140.905V142.905C390.514 142.905 395.05 139.883 397.234 135.491L395.443 134.6ZM396.065 133.198C396.033 133.659 395.854 134.072 395.577 134.398L397.101 135.693C397.645 135.053 397.997 134.238 398.06 133.337L396.065 133.198ZM396.067 133.171L396.065 133.198L398.06 133.337L398.062 133.311L396.067 133.171ZM396.624 129.552C396.624 130.735 396.444 131.873 396.11 132.943L398.019 133.539C398.413 132.279 398.624 130.939 398.624 129.552H396.624ZM396.476 127.708C396.573 128.307 396.624 128.923 396.624 129.552H398.624C398.624 128.815 398.565 128.091 398.449 127.385L396.476 127.708ZM396.928 120.85L396.465 127.477L398.46 127.616L398.923 120.99L396.928 120.85ZM394.998 118.629C396.144 118.71 397.008 119.704 396.928 120.85L398.923 120.99C399.081 118.741 397.386 116.792 395.137 116.634L394.998 118.629ZM393.034 119.692C393.416 119.008 394.168 118.571 394.998 118.629L395.137 116.634C393.506 116.52 392.034 117.382 391.288 118.717L393.034 119.692ZM383.237 112.772L391.505 119.96L392.817 118.45L384.549 111.262L383.237 112.772ZM380.846 112.939C381.46 112.233 382.53 112.158 383.237 112.772L384.549 111.262C383.009 109.924 380.675 110.087 379.337 111.627L380.846 112.939Z" fill="black" mask="url(#path-11-outside-3)"/>
<mask id="path-13-inside-4" fill="white">
<path fill-rule="evenodd" clip-rule="evenodd" d="M381.208 273.838C373.616 269.801 364.188 272.683 360.151 280.276C356.114 287.868 358.997 297.296 366.589 301.333L424.957 332.368C426.676 333.282 428.49 333.841 430.313 334.071C433.053 334.878 436.075 334.801 438.929 333.647L498.073 309.752C504.794 307.036 508.041 299.386 505.326 292.665C502.61 285.944 494.96 282.697 488.239 285.412L439.788 304.988C439.718 304.949 439.648 304.911 439.577 304.873L381.208 273.838Z"/>
</mask>
<path fill-rule="evenodd" clip-rule="evenodd" d="M381.208 273.838C373.616 269.801 364.188 272.683 360.151 280.276C356.114 287.868 358.997 297.296 366.589 301.333L424.957 332.368C426.676 333.282 428.49 333.841 430.313 334.071C433.053 334.878 436.075 334.801 438.929 333.647L498.073 309.752C504.794 307.036 508.041 299.386 505.326 292.665C502.61 285.944 494.96 282.697 488.239 285.412L439.788 304.988C439.718 304.949 439.648 304.911 439.577 304.873L381.208 273.838Z" fill="black"/>
<path d="M360.151 280.276L359.268 279.806L359.268 279.806L360.151 280.276ZM381.208 273.838L381.678 272.955L381.208 273.838ZM366.589 301.333L367.059 300.45L367.059 300.45L366.589 301.333ZM424.957 332.368L424.488 333.251L424.488 333.251L424.957 332.368ZM430.313 334.071L430.595 333.112L430.518 333.089L430.438 333.079L430.313 334.071ZM438.929 333.647L438.555 332.72L438.555 332.72L438.929 333.647ZM498.073 309.752L497.698 308.825L497.698 308.825L498.073 309.752ZM505.326 292.665L506.253 292.291L506.253 292.291L505.326 292.665ZM488.239 285.412L487.864 284.485L487.864 284.485L488.239 285.412ZM439.788 304.988L439.305 305.863L439.722 306.093L440.163 305.915L439.788 304.988ZM439.577 304.873L440.046 303.99L440.046 303.99L439.577 304.873ZM361.034 280.745C364.812 273.64 373.634 270.943 380.739 274.721L381.678 272.955C373.598 268.659 363.565 271.726 359.268 279.806L361.034 280.745ZM367.059 300.45C359.954 296.672 357.257 287.85 361.034 280.745L359.268 279.806C354.972 287.886 358.039 297.919 366.12 302.216L367.059 300.45ZM425.427 331.485L367.059 300.45L366.12 302.216L424.488 333.251L425.427 331.485ZM430.438 333.079C428.733 332.864 427.037 332.341 425.427 331.485L424.488 333.251C426.316 334.223 428.246 334.818 430.188 335.064L430.438 333.079ZM438.555 332.72C435.917 333.786 433.127 333.858 430.595 333.112L430.031 335.031C432.979 335.899 436.233 335.815 439.304 334.575L438.555 332.72ZM497.698 308.825L438.555 332.72L439.304 334.575L498.447 310.679L497.698 308.825ZM504.399 293.04C506.907 299.249 503.907 306.316 497.698 308.825L498.447 310.679C505.681 307.757 509.175 299.524 506.253 292.291L504.399 293.04ZM488.614 286.339C494.823 283.831 501.89 286.831 504.399 293.04L506.253 292.291C503.33 285.057 495.098 281.563 487.864 284.485L488.614 286.339ZM440.163 305.915L488.614 286.339L487.864 284.485L439.414 304.06L440.163 305.915ZM439.107 305.756C439.174 305.791 439.24 305.827 439.305 305.863L440.271 304.112C440.197 304.071 440.122 304.03 440.046 303.99L439.107 305.756ZM380.739 274.721L439.107 305.756L440.046 303.99L381.678 272.955L380.739 274.721Z" fill="black" mask="url(#path-13-inside-4)"/>
<path fill-rule="evenodd" clip-rule="evenodd" d="M495.671 313.76C488.613 313.542 482.957 307.752 482.957 300.64C482.957 293.391 488.834 287.515 496.083 287.515C503.06 287.515 508.765 292.959 509.184 299.83L514.5 313.5L505 319.5L495.671 313.76Z" fill="white"/>
<path d="M495.671 313.76L495.933 313.334L495.82 313.264L495.687 313.26L495.671 313.76ZM509.184 299.83L508.684 299.861L508.689 299.939L508.718 300.011L509.184 299.83ZM514.5 313.5L514.767 313.923L515.115 313.703L514.966 313.319L514.5 313.5ZM505 319.5L504.737 319.926L505.003 320.089L505.267 319.923L505 319.5ZM495.687 313.26C488.897 313.051 483.457 307.481 483.457 300.64H482.457C482.457 308.023 488.328 314.034 495.656 314.259L495.687 313.26ZM483.457 300.64C483.457 293.668 489.11 288.015 496.083 288.015V287.015C488.557 287.015 482.457 293.115 482.457 300.64H483.457ZM496.083 288.015C502.794 288.015 508.282 293.251 508.684 299.861L509.683 299.8C509.248 292.666 503.325 287.015 496.083 287.015V288.015ZM514.966 313.319L509.65 299.649L508.718 300.011L514.034 313.681L514.966 313.319ZM505.267 319.923L514.767 313.923L514.233 313.077L504.733 319.077L505.267 319.923ZM495.409 314.185L504.737 319.926L505.262 319.074L495.933 313.334L495.409 314.185Z" fill="black"/>
<path d="M362 256.5H370C390.71 256.5 407.5 273.289 407.5 294V371.5H322.5V296C322.5 274.185 340.184 256.5 362 256.5Z" fill="black" stroke="black"/>
<path d="M439.332 305.859C437.682 308.451 435.7 310.21 435.209 313.354C434.923 315.187 434.584 316.724 434.584 318.601" stroke="white" stroke-linecap="round" stroke-linejoin="round"/>
<rect x="432.871" y="307.635" width="124.851" height="114.814" fill="#F50000" stroke="black"/>
<mask id="path-20-inside-5" fill="white">
<path fill-rule="evenodd" clip-rule="evenodd" d="M408.05 369.673H321.962C321.962 383.963 331.917 395.928 345.27 399.013H330.175C325.17 399.013 320.625 401.929 318.538 406.477C314.721 414.799 320.618 424.322 329.768 424.612L441.651 428.168C457.858 428.683 471.32 415.896 471.738 399.785H471.748C471.748 399.664 471.747 399.543 471.745 399.423C471.747 399.286 471.748 399.15 471.748 399.013H471.735C471.374 388.201 463.452 379.075 452.718 377.253L408.05 369.673Z"/>
</mask>
<path fill-rule="evenodd" clip-rule="evenodd" d="M408.05 369.673H321.962C321.962 383.963 331.917 395.928 345.27 399.013H330.175C325.17 399.013 320.625 401.929 318.538 406.477C314.721 414.799 320.618 424.322 329.768 424.612L441.651 428.168C457.858 428.683 471.32 415.896 471.738 399.785H471.748C471.748 399.664 471.747 399.543 471.745 399.423C471.747 399.286 471.748 399.15 471.748 399.013H471.735C471.374 388.201 463.452 379.075 452.718 377.253L408.05 369.673Z" fill="white"/>
<path d="M321.962 369.673V368.673H320.962V369.673H321.962ZM408.05 369.673L408.218 368.687L408.135 368.673H408.05V369.673ZM345.27 399.013V400.013L345.495 398.038L345.27 399.013ZM318.538 406.477L317.629 406.061L317.629 406.061L318.538 406.477ZM329.768 424.612L329.737 425.612L329.737 425.612L329.768 424.612ZM441.651 428.168L441.683 427.168L441.683 427.168L441.651 428.168ZM471.738 399.785V398.785H470.763L470.738 399.759L471.738 399.785ZM471.748 399.785V400.785H472.748V399.785H471.748ZM471.745 399.423L470.745 399.409L470.745 399.424L470.745 399.439L471.745 399.423ZM471.748 399.013H472.748V398.013H471.748V399.013ZM471.735 399.013L470.735 399.046L470.768 400.013H471.735V399.013ZM452.718 377.253L452.885 376.267L452.885 376.267L452.718 377.253ZM321.962 370.673H408.05V368.673H321.962V370.673ZM345.495 398.038C332.585 395.057 322.962 383.487 322.962 369.673H320.962C320.962 384.439 331.248 396.8 345.045 399.987L345.495 398.038ZM330.175 400.013H345.27V398.013H330.175V400.013ZM319.447 406.894C321.371 402.701 325.561 400.013 330.175 400.013V398.013C324.78 398.013 319.879 401.156 317.629 406.061L319.447 406.894ZM329.8 423.613C321.364 423.345 315.928 414.566 319.447 406.894L317.629 406.061C313.514 415.032 319.871 425.298 329.737 425.612L329.8 423.613ZM441.683 427.168L329.8 423.613L329.737 425.612L441.62 429.167L441.683 427.168ZM470.738 399.759C470.335 415.317 457.334 427.666 441.683 427.168L441.62 429.167C458.382 429.7 472.305 416.475 472.737 399.811L470.738 399.759ZM471.748 398.785H471.738V400.785H471.748V398.785ZM470.745 399.439C470.747 399.554 470.748 399.669 470.748 399.785H472.748C472.748 399.659 472.747 399.533 472.745 399.407L470.745 399.439ZM470.748 399.013C470.748 399.145 470.747 399.277 470.745 399.409L472.745 399.437C472.747 399.296 472.748 399.154 472.748 399.013H470.748ZM471.735 400.013H471.748V398.013H471.735V400.013ZM452.55 378.239C462.815 379.981 470.39 388.708 470.735 399.046L472.734 398.979C472.357 387.694 464.089 378.168 452.885 376.267L452.55 378.239ZM407.883 370.659L452.55 378.239L452.885 376.267L408.218 368.687L407.883 370.659Z" fill="black" mask="url(#path-20-inside-5)"/>
<path d="M557.831 307.521L602.998 262.354" stroke="black"/>
<path d="M264.828 56.9758L248.614 63.5386" stroke="black"/>
<mask id="path-24-inside-6" fill="white">
<path fill-rule="evenodd" clip-rule="evenodd" d="M210.937 325.934L168.686 209.85L131.773 225.748L2.64092 278.503L14.9202 312.24L131.192 282.916L135.382 294.428L27.4635 346.702L39.7428 380.439L153.421 343.989L153.422 343.992L210.937 325.934Z"/>
</mask>
<path fill-rule="evenodd" clip-rule="evenodd" d="M210.937 325.934L168.686 209.85L131.773 225.748L2.64092 278.503L14.9202 312.24L131.192 282.916L135.382 294.428L27.4635 346.702L39.7428 380.439L153.421 343.989L153.422 343.992L210.937 325.934Z" fill="white"/>
<path d="M168.686 209.85L169.626 209.508L169.263 208.512L168.29 208.931L168.686 209.85ZM210.937 325.934L211.237 326.888L212.235 326.575L211.877 325.592L210.937 325.934ZM131.773 225.748L132.151 226.674L132.16 226.671L132.168 226.667L131.773 225.748ZM2.64092 278.503L2.26273 277.577L1.37221 277.941L1.70122 278.845L2.64092 278.503ZM14.9202 312.24L13.9805 312.582L14.2893 313.43L15.1647 313.21L14.9202 312.24ZM131.192 282.916L132.132 282.574L131.823 281.725L130.947 281.946L131.192 282.916ZM135.382 294.428L135.818 295.328L136.63 294.934L136.322 294.086L135.382 294.428ZM27.4635 346.702L27.0276 345.802L26.215 346.196L26.5238 347.044L27.4635 346.702ZM39.7428 380.439L38.8031 380.781L39.1321 381.685L40.0481 381.392L39.7428 380.439ZM153.421 343.989L154.36 343.647L154.031 342.743L153.115 343.036L153.421 343.989ZM153.422 343.992L152.482 344.334L152.809 345.233L153.721 344.946L153.422 343.992ZM167.746 210.192L209.998 326.276L211.877 325.592L169.626 209.508L167.746 210.192ZM132.168 226.667L169.082 210.768L168.29 208.931L131.377 224.83L132.168 226.667ZM131.395 224.823L2.26273 277.577L3.01911 279.429L132.151 226.674L131.395 224.823ZM1.70122 278.845L13.9805 312.582L15.8599 311.898L3.58061 278.161L1.70122 278.845ZM15.1647 313.21L131.436 283.885L130.947 281.946L14.6756 311.27L15.1647 313.21ZM136.322 294.086L132.132 282.574L130.252 283.258L134.442 294.77L136.322 294.086ZM134.946 293.528L27.0276 345.802L27.8995 347.602L135.818 295.328L134.946 293.528ZM26.5238 347.044L38.8031 380.781L40.6825 380.097L28.4032 346.36L26.5238 347.044ZM40.0481 381.392L153.726 344.941L153.115 343.036L39.4375 379.487L40.0481 381.392ZM154.362 343.65L154.36 343.647L152.481 344.331L152.482 344.334L154.362 343.65ZM210.638 324.98L153.122 343.038L153.721 344.946L211.237 326.888L210.638 324.98Z" fill="black" mask="url(#path-24-inside-6)"/>
<path d="M142.864 221.304C145.481 224.733 153.071 231.063 162.49 228.95" stroke="black"/>
<path d="M183.926 334.121C183.727 329.811 185.472 320.083 194.046 315.648" stroke="black"/>
<path d="M157.475 215.164L198.934 329.072" stroke="black"/>
<path d="M176.751 268.127L143.74 280.142C145.555 284 150.782 291.136 157.166 288.812C163.551 286.488 175.788 282.034 181.109 280.098" stroke="black"/>
<path d="M287.987 83.1406C292.686 80.5302 297.134 82.4389 302.022 82.4389C305.157 82.4389 308.008 82.553 310.95 81.3082C313.234 80.342 315.41 78.4778 317.812 77.8774" stroke="black" stroke-linecap="round" stroke-linejoin="round"/>
<path d="M284.479 121.037C288.041 116.801 293.476 113.619 298.144 110.725C302.266 108.169 306.429 108.126 311.068 108.054C315.804 107.981 320.637 104.135 324.089 101.232C327.283 98.5458 330.3 95.5665 333.251 92.6157" stroke="black" stroke-linecap="round" stroke-linejoin="round"/>
<path d="M230.794 63.8461C232.176 61.8331 233.726 60.5641 235.356 58.9338" stroke="black" stroke-linecap="round" stroke-linejoin="round"/>
<path d="M260.267 164.897C261.725 166.86 262.836 169.036 264.458 170.862C265.832 172.408 267.531 173.38 269.214 174.546C270.648 175.539 273.153 175.072 274.809 175.072C277.963 175.072 281.529 174.51 284.478 175.774" stroke="black" stroke-linecap="round" stroke-linejoin="round"/>
<path d="M36.8423 278.306C45.5687 276.824 53.4814 276.001 62.3198 276.001C68.1217 276.001 71.7916 275.4 76.7869 272.331C80.145 270.268 83.4798 266.783 87.5412 266.783" stroke="black" stroke-linecap="round" stroke-linejoin="round"/>
<path d="M104.443 328.236C99.3422 335.102 98.327 341.339 102.906 348.208" stroke="black" stroke-linecap="round" stroke-linejoin="round"/>
<path d="M155.14 318.25C150.863 322.527 146.549 328.596 140.972 331.309C135.675 333.886 130.331 335.605 127.486 341.295" stroke="black" stroke-linecap="round" stroke-linejoin="round"/>
<path d="M42.9849 361.269C50.1694 357.676 55.1199 356.813 62.9572 356.66C67.7516 356.566 69.6396 353.408 73.7115 352.051" stroke="black" stroke-linecap="round" stroke-linejoin="round"/>
<path d="M132.093 246.045C137.334 246.045 141.303 246.637 146.262 247.538C149.26 248.083 151.751 246.149 154.37 245.276" stroke="black" stroke-linecap="round" stroke-linejoin="round"/>
<path d="M328.742 23.2761C339.191 18.9022 349.496 15.5443 360.236 11.7537" stroke="black" stroke-linecap="round" stroke-linejoin="round"/>
<path d="M339.5 10.218C343.874 7.65758 347.152 8.03686 351.619 6.54786C355.208 5.35163 357.936 1.96017 361.776 1" stroke="black" stroke-linecap="round" stroke-linejoin="round"/>
<path d="M140.542 209.172C145.02 203.533 149.627 203.221 155.734 200.722C161.181 198.494 165.222 192.496 170.5 190.736" stroke="black" stroke-linecap="round" stroke-linejoin="round"/>
<path d="M144.387 358.197C150.957 355.632 155.108 356.66 161.67 356.66C165.154 356.66 167.799 355.633 170.12 352.777C171.795 350.716 174.535 346.674 177.418 346.674" stroke="black" stroke-linecap="round" stroke-linejoin="round"/>
<path d="M218.896 287.525C223.879 286.552 228.819 286.756 233.875 286.756C237.768 286.756 242.048 284.929 245.782 283.684" stroke="black" stroke-linecap="round" stroke-linejoin="round"/>
<path d="M221.967 259.104C226.238 258.188 230.637 255.381 235.026 255.263C238.292 255.174 241.574 255.263 244.842 255.263C248.126 255.263 250.371 254.809 253.121 252.788C254.474 251.792 257.382 250.495 258.071 249.117" stroke="black" stroke-linecap="round" stroke-linejoin="round"/>
<path d="M390.958 106.307C395.116 104.701 399.106 103.804 403.611 103.804C406.221 103.804 408.862 103.804 411.48 103.804" stroke="black" stroke-linecap="round" stroke-linejoin="round"/>
<path d="M398.719 112.062C403.955 112.062 408.901 111.368 413.986 113.063" stroke="black" stroke-linecap="round" stroke-linejoin="round"/>
<path d="M433.34 230.156C434.162 225.682 436.94 221.82 438.05 217.382C438.67 214.901 439.437 212.826 439.437 210.269C439.437 208.581 438.616 207.343 438.211 205.769C437.792 204.14 437.214 202.423 436.663 200.85C435.831 198.472 434.708 196.226 433.921 193.866" stroke="black" stroke-linecap="round" stroke-linejoin="round"/>
<path d="M444.955 202.283C445.031 205.482 447.858 208.143 447.858 211.428C447.858 214.954 446.776 217.511 445.245 220.573" stroke="black" stroke-linecap="round" stroke-linejoin="round"/>
<path d="M433 399C435.873 396.127 441.602 396.485 443.098 392" stroke="black" stroke-linecap="round" stroke-linejoin="round"/>
<path d="M432.799 399.05C436.367 399.05 438.406 398.986 441.046 401.219C442.961 402.84 445.544 403.089 447.946 403.089" stroke="black" stroke-linecap="round" stroke-linejoin="round"/>
<path d="M339 400C337.48 405.999 338.144 412.251 338.144 418.345C338.144 421.563 338.144 420.782 338.144 424" stroke="black" stroke-linecap="round" stroke-linejoin="round"/>
<path d="M377.72 145.871C380.104 146.395 382.181 147.745 384.652 147.745C385.658 147.745 386.664 147.745 387.67 147.745C389.091 147.745 389.912 147.132 391.209 146.995C393.497 146.754 395.846 144.232 397.391 142.686C399.234 140.844 399.985 139.669 400.951 137.253" stroke="black" stroke-linecap="round" stroke-linejoin="round"/>
<path d="M324 376C330.821 376.039 337.674 376.078 344.489 376.117" stroke="black" stroke-linecap="round" stroke-linejoin="round"/>
<path d="M344.486 376.117C344.521 377.853 345.259 379.539 345.418 381.29C345.627 383.59 345.74 385.863 345.74 388.186C345.74 389.348 345.878 390.578 345.505 391.695C345.089 392.944 344.697 394.21 344.251 395.448C343.921 396.365 343.168 397.093 342.762 397.904" stroke="black" stroke-linecap="round" stroke-linejoin="round"/>
<path d="M352.854 394.425C356.541 393.653 358.942 391.478 361.499 388.921C364.185 386.236 367.704 383.945 371.313 382.743" stroke="black" stroke-linecap="round" stroke-linejoin="round"/>
<path d="M369.443 391.156C371.403 391.156 373.329 390.922 375.284 390.922" stroke="black" stroke-linecap="round" stroke-linejoin="round"/>
<path d="M347.249 416.389C349.115 416.389 350.722 416.423 352.519 416.909C353.741 417.239 354.923 417.597 356.179 417.843C360.226 418.635 364.309 417.518 368.277 416.857" stroke="black" stroke-linecap="round" stroke-linejoin="round"/>
<path d="M396.859 167.945C397.545 169.64 398.59 171.145 399.233 172.817C399.724 174.093 400.159 175.19 401.107 176.19C402.329 177.481 403.352 179.862 404.105 181.451C405.199 183.761 406.854 186.437 407.353 188.932" stroke="white" stroke-linecap="round" stroke-linejoin="round"/>
<path d="M329.841 313.897C329.841 317.217 330.833 321.252 333.151 323.826C334.874 325.741 336.933 327.872 338.322 330.032C341.469 334.928 342.666 340.398 342.666 346.167" stroke="white" stroke-linecap="round" stroke-linejoin="round"/>
<path d="M397.184 347.831C398.654 346.717 400.221 345.541 401.269 344.017C402.374 342.411 403.928 341.251 405.062 339.681C405.79 338.673 406.301 337.48 406.924 336.421C407.241 335.881 407.688 335.269 407.688 334.61" stroke="white" stroke-linecap="round" stroke-linejoin="round"/>
<path d="M546.642 334.156V409.435H530.814" stroke="black" stroke-linecap="round"/>
<path d="M543.554 245.366V258.492" stroke="black"/>
<path d="M536.991 251.929H550.117" stroke="black"/>
<path d="M535.443 278.568V287.061" stroke="black"/>
<path d="M531.198 282.815H539.691" stroke="black"/>
<path d="M488.342 253.862V262.355" stroke="black"/>
<path d="M484.097 258.109H492.59" stroke="black"/>
<path d="M326.899 384.596C327.933 384.8 330.934 388.68 332.401 390.485C327.752 390.496 318.67 401.147 316.349 402.96C314.492 404.411 300.625 417.892 293.923 424.451C286.5 431.907 281.561 441.527 282.341 443.85C280.895 444.06 280.706 443.94 280.791 443.854L276.649 439.73C275.866 435.857 285.653 422.919 289.263 419.811C292.872 416.703 300.861 408.161 302.666 406.349L316.068 392.886C318.904 390.038 325.607 384.341 326.899 384.596Z" fill="white" stroke="black"/>
<path d="M338.296 398.52C337.88 397.281 334.15 392.674 332.337 390.525C330.529 390.788 327.178 393.637 324.599 395.709C322.02 397.781 301.656 417.201 294.44 424.966C287.225 432.732 282.08 442.559 282.34 443.334C282.6 444.108 283.115 443.59 284.408 443.846C285.7 444.101 297.565 436.325 299.371 435.03C301.176 433.734 309.435 430.616 312.793 430.35C316.151 430.084 324.669 427.224 327.509 426.443C329.781 425.818 329.313 424.63 328.795 424.115C328.276 422.911 327.03 420.089 326.199 418.438C325.161 416.373 327.997 413.526 330.055 409.905C332.114 406.283 338.055 406.012 339.087 405.493C340.119 404.974 340.894 405.231 341.666 403.937C342.439 402.644 338.816 400.069 338.296 398.52Z" fill="black" stroke="black"/>
<path d="M321.797 413.539L326.681 402.421C322.549 403.256 308.111 415.55 301.408 421.593L305.029 423.651C305.029 423.651 300.387 427.278 298.07 430.641L316.393 422.593L310.962 419.763L321.797 413.539Z" fill="white"/>
<path d="M379.546 115.491C379.945 116.012 380.438 116.474 380.783 117.031C381.071 117.496 381.418 117.68 381.795 118.043C382.59 118.809 383.396 119.845 384.301 120.448" stroke="black" stroke-linecap="round" stroke-linejoin="round"/>
<path d="M374.994 119.639C375.667 120.13 376.43 120.503 377.073 121.033C377.411 121.312 377.666 121.654 378.029 121.916C378.787 122.463 379.715 123.045 380.356 123.686" stroke="black" stroke-linecap="round" stroke-linejoin="round"/>
<path d="M372.565 126.013C373.481 126.874 374.568 127.357 375.556 128.081C376.131 128.503 376.799 128.628 377.321 129.149" stroke="black" stroke-linecap="round" stroke-linejoin="round"/>
<path d="M391.947 118.577C392.497 119.295 393.126 119.836 393.604 120.587C394.009 121.223 394.224 121.992 394.636 122.611" stroke="black" stroke-linecap="round" stroke-linejoin="round"/>
<path d="M503.5 301.5L506 307.5M496 303.5L497.5 307.5" stroke="black"/>
<path d="M345 399H433" stroke="black"/>
</svg>
