<svg width="120" height="44" viewBox="0 0 120 44" fill="none" xmlns="http://www.w3.org/2000/svg">
<g id="Okko_Logo 1" clip-path="url(#clip0_49_51)">
<g id="Group">
<path id="Vector" d="M16.3773 10.3369C7.37698 10.3369 0.0463867 17.7249 0.0463867 26.9392C0.0463867 36.112 7.37698 43.5 16.3773 43.5C25.4184 43.5 32.749 36.112 32.749 26.9392C32.749 17.7249 25.4184 10.3369 16.3773 10.3369ZM16.3773 36.5686C11.3681 36.5686 7.25481 32.0444 7.25481 26.9392C7.25481 21.7925 11.3681 17.2684 16.3773 17.2684C21.4273 17.2684 25.5406 21.7925 25.5406 26.9392C25.5406 32.0444 21.4273 36.5686 16.3773 36.5686Z" fill="#686868"/>
<path id="Vector_2" d="M7.01031 7.84652C8.96514 7.84652 10.5942 6.18629 10.5942 4.15251C10.5942 2.16023 8.96514 0.5 7.01031 0.5C5.01476 0.5 3.38574 2.16023 3.38574 4.15251C3.38574 6.18629 5.01476 7.84652 7.01031 7.84652Z" fill="#686868"/>
<path id="Vector_3" d="M25.7442 7.84652C27.699 7.84652 29.328 6.18629 29.328 4.15251C29.328 2.16023 27.699 0.5 25.7442 0.5C23.7487 0.5 22.1196 2.16023 22.1196 4.15251C22.1196 6.18629 23.7487 7.84652 25.7442 7.84652Z" fill="#686868"/>
<path id="Vector_4" d="M16.3775 7.84652C18.3323 7.84652 19.9613 6.18629 19.9613 4.15251C19.9613 2.16023 18.3323 0.5 16.3775 0.5C14.382 0.5 12.7529 2.16023 12.7529 4.15251C12.7529 6.18629 14.382 7.84652 16.3775 7.84652Z" fill="#686868"/>
<path id="Vector_5" d="M88.5428 10.9179H80.6014L71.1938 24.2413V1.03955H63.9854V42.9189H71.1938V29.5955L81.3344 42.9189H89.8461L77.3433 26.7316L88.5428 10.9179Z" fill="#686868"/>
<path id="Vector_6" d="M60.6053 10.9179H52.6639L43.2563 24.2413V1.03955H36.0479V42.9189H43.2563V29.5955L53.3969 42.9189H61.9086L49.4058 26.7316L60.6053 10.9179Z" fill="#686868"/>
<path id="Vector_7" d="M102.675 10.3369C93.6743 10.3369 86.3438 17.7249 86.3438 26.9392C86.3438 36.112 93.6743 43.5 102.675 43.5C111.716 43.5 119.046 36.112 119.046 26.9392C119.046 17.7249 111.716 10.3369 102.675 10.3369ZM102.634 36.5686C97.6247 36.5686 93.5114 32.0444 93.5114 26.9392C93.5114 21.7925 97.6247 17.2684 102.634 17.2684C107.684 17.2684 111.797 21.7925 111.797 26.9392C111.797 32.0444 107.684 36.5686 102.634 36.5686Z" fill="#686868"/>
</g>
</g>
<defs>
<clipPath id="clip0_49_51">
<rect width="119" height="43" fill="white" transform="translate(0.0463867 0.5)"/>
</clipPath>
</defs>
</svg>
