<svg width="163" height="68" viewBox="0 0 163 68" fill="none" xmlns="http://www.w3.org/2000/svg">
<path d="M121.641 13.2671L127.319 9.08594H108.318V34.1996H127.319V30.0185H113.739V23.5895H125.322V19.4063H113.739V13.2671H121.641Z" fill="#686868"/>
<path d="M93.9737 18.8764H87.3764V13.2671H97.9093L103.587 9.08594H81.9536V34.1996H93.2757C99.6265 34.1996 103.268 31.3245 103.268 26.3113C103.268 21.5155 99.9683 18.8764 93.9737 18.8764ZM93.023 30.0185H87.3682V23.0575H93.023C96.4635 23.0575 98.0668 24.2208 98.0668 26.5369C98.0668 28.9028 96.3703 30.0185 93.023 30.0185Z" fill="#686868"/>
<path d="M142.713 9.08594H132.356V34.1996H137.779V27.0854H142.702C149.304 27.0854 153.405 23.6164 153.405 18.0733C153.405 12.5302 149.304 9.08594 142.702 9.08594M142.586 22.9043H137.779V13.2671H142.586C146.06 13.2671 147.972 14.9788 147.972 18.0857C147.972 21.1926 146.058 22.9043 142.586 22.9043Z" fill="#686868"/>
<path d="M72.6451 28.7622C71.2071 29.5414 69.5955 29.9451 67.9597 29.9358C63.0712 29.9358 59.523 26.4481 59.523 21.6439C59.523 16.8398 63.0712 13.3645 67.9597 13.3645C69.7262 13.3391 71.4546 13.8795 72.8916 14.9066L76.7816 12.0419L76.5248 11.8162C74.2463 9.82297 71.22 8.76941 67.7505 8.76941C63.9868 8.76941 60.5711 10.0362 58.1331 12.3399C55.6951 14.6437 54.3301 17.9161 54.3301 21.5156C54.3301 25.1151 55.6765 28.4414 58.1186 30.83C60.5607 33.2186 63.9785 34.5433 67.7152 34.5433C71.6239 34.5433 75.0375 33.1814 77.3512 30.7037L73.8423 28.1185L72.6451 28.7622Z" fill="#686868"/>
<path d="M41.4335 21.5217C41.434 20.2779 41.3231 19.0366 41.1021 17.8125L36.6425 21.0953C36.6425 21.2381 36.6425 21.3789 36.6425 21.5217C36.6462 25.0827 35.4563 28.5424 33.2627 31.3489C31.0691 34.1553 27.9981 36.1468 24.5397 37.0056C21.0813 37.8645 17.4346 37.5412 14.1815 36.0874C10.9284 34.6336 8.25622 32.133 6.59126 28.9845C4.9263 25.8361 4.36448 22.2211 4.99544 18.7163C5.62639 15.2115 7.41376 12.0189 10.0724 9.64764C12.7311 7.2764 16.1078 5.86319 19.664 5.63346C23.2202 5.40373 26.751 6.37071 29.693 8.38015L33.7219 5.41404C30.0661 2.46605 25.516 0.847371 20.8184 0.823629C16.1208 0.799887 11.5547 2.37249 7.86921 5.28338C4.18377 8.19427 1.59797 12.2705 0.53612 16.8433C-0.525731 21.4161 -0.00055509 26.2137 2.02547 30.4489C4.0515 34.6842 7.45803 38.1055 11.6861 40.1513C15.9141 42.1972 20.7125 42.7462 25.2939 41.7082C29.8753 40.6702 33.9675 38.1069 36.8991 34.4389C39.8306 30.7708 41.4274 26.216 41.4273 21.5217H41.4335Z" fill="#686868"/>
<path d="M37.1108 8.8645C38.0963 10.1351 38.9305 11.516 39.5964 12.9794L20.7221 26.8806L12.8364 21.9398V15.9972L20.7221 20.938L37.1108 8.8645Z" fill="#686868"/>
</svg>
