<svg width="18" height="15" viewBox="0 0 18 15" fill="none" xmlns="http://www.w3.org/2000/svg">
<path d="M17.9609 1.36719C18.0391 0.820312 18 0.46875 17.7656 0.234375C17.5312 0 17.2188 -0.0390625 16.8281 0.078125L1.32031 6.05469C0.773438 6.28906 0.5 6.52344 0.5 6.75781C0.460938 7.03125 0.65625 7.22656 1.125 7.34375L5.10938 8.59375L14.3281 2.77344C14.4453 2.69531 14.5625 2.65625 14.6797 2.65625C14.7969 2.65625 14.875 2.65625 14.9141 2.73438C14.9531 2.8125 14.9141 2.85156 14.8359 2.92969L7.375 9.6875L7.0625 13.7891C7.25781 13.7891 7.41406 13.75 7.57031 13.6719C7.64844 13.6328 7.72656 13.5547 7.88281 13.3984L9.83594 11.5234L13.8594 14.4922C14.2109 14.7266 14.5234 14.7656 14.7578 14.6484C14.9922 14.5312 15.1875 14.2578 15.3047 13.7891L17.9609 1.36719Z" fill="black"/>
</svg>
