<svg width="18" height="15" viewBox="0 0 18 15" fill="none" xmlns="http://www.w3.org/2000/svg">
<path d="M17.9609 1.36721C18.039 0.820338 18 0.468776 17.7656 0.234401C17.5312 2.5779e-05 17.2187 -0.0390367 16.8281 0.0781508L1.32029 6.05471C0.773415 6.28909 0.499978 6.52346 0.499978 6.75784C0.460915 7.03128 0.656228 7.22659 1.12498 7.34378L5.10935 8.59378L14.3281 2.77346C14.4453 2.69534 14.5625 2.65628 14.6797 2.65628C14.7969 2.65628 14.875 2.65628 14.914 2.7344C14.9531 2.81253 14.914 2.85159 14.8359 2.92971L7.37498 9.68753L7.06248 13.7891C7.25779 13.7891 7.41404 13.75 7.57029 13.6719C7.64842 13.6328 7.72654 13.5547 7.88279 13.3985L9.83592 11.5235L13.8594 14.4922C14.2109 14.7266 14.5234 14.7657 14.7578 14.6485C14.9922 14.5313 15.1875 14.2578 15.3047 13.7891L17.9609 1.36721Z" fill="white"/>
</svg>
