<svg width="59" height="60" viewBox="0 0 59 60" fill="none" xmlns="http://www.w3.org/2000/svg">
<g id="vkLogo">
<mask id="mask0_49_38" style="mask-type:luminance" maskUnits="userSpaceOnUse" x="0" y="0" width="59" height="60">
<g id="clip0_2_16">
<path id="Vector" d="M59 0.5H0V59.5H59V0.5Z" fill="white"/>
</g>
</mask>
<g mask="url(#mask0_49_38)">
<g id="Group">
<path id="Vector_2" fill-rule="evenodd" clip-rule="evenodd" d="M4.14737 4.64737C0 8.79475 0 15.4698 0 28.82V31.18C0 44.5302 0 51.2052 4.14737 55.3526C8.29475 59.5 14.9698 59.5 28.32 59.5H30.68C44.0302 59.5 50.7052 59.5 54.8526 55.3526C59 51.2052 59 44.5302 59 31.18V28.82C59 15.4698 59 8.79475 54.8526 4.64737C50.7052 0.5 44.0302 0.5 30.68 0.5H28.32C14.9698 0.5 8.29475 0.5 4.14737 4.64737ZM9.95637 18.446C10.2759 33.786 17.9459 43.0047 31.393 43.0047H32.1552V34.2284C37.0964 34.7201 40.8328 38.3339 42.3324 43.0047H49.3143C47.3968 36.023 42.3569 32.1634 39.2103 30.6884C42.3569 28.8693 46.782 24.4443 47.839 18.446H41.4963C40.1197 23.3135 36.0393 27.7384 32.1552 28.1563V18.446H25.8124V35.4576C21.8791 34.4743 16.9134 29.7051 16.6922 18.446H9.95637Z" fill="#686868"/>
</g>
</g>
</g>
</svg>
