<svg width="18" height="19" viewBox="0 0 18 19" fill="none" xmlns="http://www.w3.org/2000/svg">
<path d="M15.3828 3.28906C16.2031 4.14844 16.8281 5.08594 17.2969 6.14062C17.7656 7.19531 18 8.28906 18 9.42188C18 10.9844 17.5703 12.4297 16.7891 13.7578C16.0078 15.0859 14.9141 16.1406 13.5859 16.9219C12.2578 17.7031 10.8125 18.0938 9.25 18.0938C7.76562 18.0938 6.35938 17.7422 5.10938 17.0391L0.5 18.25L1.75 13.7578C0.96875 12.4297 0.578125 10.9844 0.578125 9.42188C0.578125 7.85938 0.96875 6.41406 1.75 5.08594C2.53125 3.75781 3.58594 2.70312 4.91406 1.92188C6.24219 1.14062 7.6875 0.75 9.25 0.75C10.3828 0.75 11.4766 0.984375 12.5312 1.41406C13.5859 1.88281 14.5234 2.50781 15.3828 3.28906ZM9.25 16.6484C10.5391 16.6484 11.75 16.3359 12.8828 15.6719C13.9766 15.0469 14.875 14.1484 15.5391 13.0547C16.2031 11.9609 16.5547 10.75 16.5547 9.42188C16.5547 8.48438 16.3594 7.58594 15.9688 6.6875C15.5781 5.82812 15.0312 5.04688 14.3281 4.34375C13.625 3.64062 12.8438 3.13281 11.9844 2.74219C11.125 2.39062 10.1875 2.19531 9.25 2.19531C7.92188 2.19531 6.71094 2.54688 5.61719 3.17188C4.52344 3.83594 3.625 4.73438 3 5.82812C2.33594 6.92188 2.02344 8.13281 2.02344 9.42188C2.02344 10.8281 2.375 12.0781 3.15625 13.25L3.3125 13.5234L2.57031 16.1797L5.30469 15.4766L5.57812 15.6328C6.67188 16.3359 7.92188 16.6484 9.25 16.6484ZM13.1953 11.2188L13.3125 11.2969C13.4688 11.375 13.5859 11.4531 13.625 11.4922C13.625 11.5703 13.625 11.6875 13.625 11.8828C13.625 12.1172 13.5469 12.3125 13.4688 12.5469C13.3906 12.7812 13.1562 12.9766 12.8438 13.2109C12.5312 13.4453 12.2578 13.5625 12.0234 13.5625C11.6328 13.6406 11.2812 13.6406 10.9688 13.5625C10.5781 13.4844 10.0312 13.3281 9.40625 13.0156C8.07812 12.4688 6.86719 11.375 5.77344 9.8125L5.69531 9.73438C5.10938 8.95312 4.83594 8.21094 4.83594 7.50781C4.83594 6.84375 5.07031 6.25781 5.53906 5.75L5.57812 5.71094C5.73438 5.55469 5.92969 5.4375 6.16406 5.4375H6.63281C6.71094 5.4375 6.78906 5.47656 6.86719 5.51562C6.94531 5.55469 6.98438 5.63281 7.0625 5.78906L7.72656 7.39062C7.80469 7.54688 7.80469 7.70312 7.76562 7.78125C7.60938 8.05469 7.45312 8.28906 7.25781 8.48438C7.14062 8.60156 7.0625 8.67969 7.0625 8.75781C7.02344 8.83594 7.0625 8.875 7.14062 8.95312C7.49219 9.65625 7.92188 10.1641 8.42969 10.5547C8.78125 10.8672 9.32812 11.1797 10.0703 11.5312C10.2656 11.6484 10.4219 11.6484 10.5391 11.4922C10.8516 11.1016 11.0859 10.8281 11.2422 10.6328C11.2812 10.5547 11.3594 10.4766 11.4375 10.4766C11.5156 10.4766 11.5938 10.5156 11.7109 10.5156C11.9062 10.5938 12.4141 10.8281 13.1953 11.2188Z" fill="black"/>
</svg>
