<svg width="61" height="62" viewBox="0 0 61 62" fill="none" xmlns="http://www.w3.org/2000/svg">
<g id="yandexLogo">
<path id="Vector" d="M30.5 61.5C34.5053 61.5 38.4714 60.7111 42.1718 59.1783C45.8723 57.6456 49.2346 55.3989 52.0668 52.5668C54.8989 49.7346 57.1456 46.3723 58.6783 42.6718C60.2111 38.9714 61 35.0053 61 31C61 26.9947 60.2111 23.0286 58.6783 19.3282C57.1456 15.6277 54.8989 12.2654 52.0668 9.43324C49.2346 6.60106 45.8723 4.35444 42.1718 2.82167C38.4714 1.28891 34.5053 0.5 30.5 0.5C22.4109 0.5 14.6531 3.71338 8.93324 9.43324C3.21338 15.1531 0 22.9109 0 31C0 39.0891 3.21338 46.8469 8.93324 52.5668C14.6531 58.2866 22.4109 61.5 30.5 61.5Z" fill="#686868"/>
<path id="Vector_2" d="M35.2925 50.0699H41.9298V11.9159H32.257C22.526 11.9159 17.4137 16.9121 17.4137 24.2611C17.4137 30.0997 20.2168 33.5999 25.2129 37.1583L16.5132 50.0554H23.7315L33.4044 35.6188L30.0349 33.3821C25.9682 30.6226 23.9784 28.5021 23.9784 23.8835C23.9784 19.8314 26.8396 17.0864 32.286 17.0864H35.2634V50.0554H35.2779L35.2925 50.0699Z" fill="white"/>
</g>
</svg>
