<svg width="53" height="112" viewBox="0 0 53 112" fill="none" xmlns="http://www.w3.org/2000/svg">
<g id="yotaLogo">
<path id="Vector" d="M17.4751 91.3333C17.453 91.2939 17.421 91.2611 17.3822 91.238C17.3435 91.2149 17.2993 91.2024 17.2542 91.2018H14.6558C14.6152 91.2019 14.5752 91.2121 14.5394 91.2313C14.5036 91.2506 14.4731 91.2784 14.4507 91.3122L9.06447 99.0864L3.96232 91.3333C3.93984 91.2994 3.90936 91.2716 3.87358 91.2524C3.8378 91.2331 3.79782 91.223 3.75718 91.2228H1.03779C0.993214 91.2227 0.94949 91.235 0.911435 91.2582C0.873381 91.2814 0.842473 91.3147 0.822126 91.3543C0.797679 91.3919 0.784668 91.4357 0.784668 91.4806C0.784668 91.5254 0.797679 91.5692 0.822126 91.6068L7.57064 101.922V111.421C7.57129 111.486 7.59777 111.549 7.64428 111.595C7.66669 111.618 7.69376 111.636 7.72369 111.648C7.75363 111.659 7.78573 111.665 7.81786 111.663H10.2059C10.238 111.664 10.27 111.659 10.2999 111.647C10.3297 111.635 10.3569 111.617 10.3795 111.595C10.426 111.549 10.4524 111.486 10.4531 111.421V101.895L17.4751 91.6068C17.4973 91.5684 17.509 91.5249 17.509 91.4806C17.509 91.4362 17.4973 91.3927 17.4751 91.3543" fill="#686868"/>
<path id="Vector_2" d="M26.6275 98.9761C26.0467 98.2368 25.3081 97.6366 24.4657 97.2193C23.5315 96.7567 22.4991 96.5275 21.457 96.5513C20.4662 96.5175 19.4812 96.7159 18.5807 97.1305C17.6803 97.5451 16.8892 98.1646 16.2707 98.9393C15.6907 99.6711 15.2551 100.506 14.9872 101.401C14.4229 103.242 14.4229 105.209 14.9872 107.05C15.2584 107.959 15.6993 108.809 16.2864 109.554C16.8686 110.288 17.5955 110.895 18.422 111.337L18.5377 111.121L18.4325 111.342C19.3707 111.792 20.4011 112.015 21.4412 111.995C22.4323 112.017 23.4151 111.809 24.3123 111.388C25.2095 110.966 25.9967 110.342 26.6117 109.564C27.1885 108.829 27.6237 107.992 27.8952 107.097C28.47 105.258 28.47 103.287 27.8952 101.448C27.6249 100.552 27.1896 99.7132 26.6117 98.9761M17.3174 104.21C17.3177 103.54 17.4061 102.873 17.5804 102.227C17.7384 101.612 17.9999 101.029 18.3536 100.502C18.6854 100.013 19.1221 99.6053 19.6318 99.3075C20.1898 99.0171 20.8095 98.8655 21.4386 98.8655C22.0676 98.8655 22.6874 99.0171 23.2454 99.3075C23.7616 99.6066 24.2052 100.016 24.5446 100.507C24.9069 101.032 25.1723 101.618 25.3283 102.237C25.6789 103.549 25.6789 104.929 25.3283 106.24C25.1748 106.862 24.9093 107.45 24.5446 107.976C24.209 108.475 23.7716 108.899 23.2611 109.217C22.7139 109.534 22.0892 109.693 21.457 109.675C20.8351 109.69 20.2212 109.532 19.6844 109.217C19.1691 108.911 18.7216 108.503 18.3694 108.018C18.0167 107.481 17.7554 106.889 17.5962 106.266C17.4207 105.604 17.3323 104.921 17.3332 104.236" fill="#686868"/>
<path id="Vector_3" d="M38.1097 108.965C38.0929 108.934 38.0696 108.907 38.0415 108.886C38.0133 108.865 37.9809 108.851 37.9466 108.844C37.8764 108.833 37.8047 108.85 37.7467 108.891C37.4758 109.101 37.1809 109.277 36.8683 109.417C36.5638 109.56 36.2315 109.633 35.8952 109.633C35.579 109.65 35.2677 109.549 35.0221 109.349C34.8924 109.179 34.7977 108.985 34.7435 108.778C34.6893 108.571 34.6768 108.356 34.7065 108.144V99.2811H38.2307C38.2623 99.2813 38.2936 99.2748 38.3226 99.2621C38.3516 99.2494 38.3776 99.2308 38.399 99.2074C38.4218 99.1857 38.4401 99.1596 38.4528 99.1307C38.4654 99.1018 38.4722 99.0707 38.4726 99.0391V97.1508C38.47 97.0875 38.4437 97.0274 38.3989 96.9826C38.3541 96.9378 38.294 96.9114 38.2307 96.9088H34.7328V93.2637C34.7315 93.1995 34.7072 93.1379 34.6644 93.0901C34.6185 93.0436 34.5562 93.0171 34.4908 93.0165H32.2028C32.1374 93.0171 32.075 93.0436 32.0292 93.0901C31.9863 93.1379 31.9621 93.1995 31.9608 93.2637V96.9088H29.7516C29.7189 96.9068 29.6862 96.9123 29.6561 96.9251C29.626 96.9379 29.5992 96.9576 29.578 96.9825C29.5547 97.0038 29.536 97.0298 29.5234 97.0588C29.5107 97.0878 29.5042 97.1192 29.5044 97.1508V99.0391C29.5042 99.0708 29.5107 99.1021 29.5234 99.1311C29.536 99.1601 29.5547 99.1861 29.578 99.2074C29.5997 99.2318 29.6266 99.251 29.6566 99.2637C29.6866 99.2764 29.719 99.2824 29.7516 99.2811H31.9608V108.397C31.922 108.889 31.9857 109.383 32.1477 109.85C32.3098 110.316 32.5667 110.743 32.9023 111.105C33.6322 111.729 34.574 112.047 35.5323 111.994C36.2134 112.024 36.8935 111.915 37.5311 111.674C38.0311 111.449 38.504 111.168 38.9407 110.837C38.9872 110.801 39.0191 110.749 39.0307 110.691C39.0423 110.633 39.0328 110.573 39.0039 110.522L38.1097 108.965Z" fill="#686868"/>
<path id="Vector_4" d="M50.4289 97.8399C49.347 96.9266 47.955 96.4651 46.5418 96.5512C45.4853 96.514 44.4333 96.7079 43.4595 97.1193C42.608 97.5301 41.8722 98.1465 41.3187 98.9129C41.281 98.9678 41.2659 99.0351 41.2767 99.1008C41.2875 99.1665 41.3233 99.2254 41.3765 99.2653L42.9913 100.396C43.0425 100.431 43.1049 100.446 43.1663 100.437C43.2276 100.428 43.2835 100.397 43.3227 100.349C43.6793 99.8985 44.1275 99.5292 44.6377 99.2653C45.1599 98.9912 45.7417 98.8503 46.3314 98.8551C46.6991 98.8298 47.068 98.8792 47.4161 99.0003C47.7641 99.1215 48.084 99.3118 48.3565 99.5599C48.7878 100.002 49.0403 100.77 49.0456 101.901C48.1241 101.914 47.2048 101.993 46.2946 102.137C45.3116 102.287 44.3541 102.572 43.449 102.984C42.6142 103.359 41.8737 103.917 41.2819 104.615C40.6805 105.373 40.369 106.32 40.4035 107.287C40.3897 107.998 40.5428 108.702 40.8506 109.343C41.126 109.909 41.5187 110.409 42.0025 110.811C42.4873 111.206 43.0423 111.506 43.6383 111.695C44.2487 111.89 44.8857 111.989 45.5266 111.989C46.291 111.997 47.0492 111.852 47.7569 111.563C48.2744 111.349 48.7567 111.058 49.1876 110.7L49.2559 111.437C49.2636 111.497 49.2928 111.553 49.3382 111.594C49.3837 111.634 49.4422 111.657 49.5032 111.658H51.6071C51.6393 111.659 51.6714 111.654 51.7015 111.642C51.7315 111.631 51.7588 111.613 51.7816 111.59C51.8043 111.567 51.8221 111.54 51.8337 111.51C51.8454 111.48 51.8506 111.448 51.8491 111.416V102.121C51.8491 100.17 51.402 98.7236 50.4394 97.8399M49.035 104.225V108.286C48.5996 108.651 48.123 108.963 47.6148 109.217C47.0481 109.492 46.4249 109.631 45.7949 109.622C45.4871 109.623 45.1807 109.581 44.8849 109.496C44.5902 109.42 44.3144 109.284 44.0749 109.096C43.8261 108.898 43.6187 108.654 43.4647 108.376C43.2958 108.051 43.2142 107.689 43.2281 107.324C43.1877 106.749 43.3768 106.181 43.754 105.746C44.1563 105.318 44.6563 104.995 45.211 104.804C45.8546 104.574 46.5242 104.423 47.2046 104.357C47.841 104.289 48.4512 104.241 49.0245 104.215" fill="#686868"/>
<path id="Vector_5" d="M45.0423 27.4565C49.5432 22.8665 52.0579 16.6902 52.0433 10.2617V5.52777C52.0658 4.81012 51.9439 4.09527 51.6848 3.42565C51.4257 2.75603 51.0347 2.1453 50.535 1.6297C50.0353 1.11411 49.4371 0.704169 48.7759 0.424215C48.1148 0.14426 47.4041 0 46.6861 0C45.9681 0 45.2574 0.14426 44.5962 0.424215C43.935 0.704169 43.3369 1.11411 42.8372 1.6297C42.3375 2.1453 41.9465 2.75603 41.6874 3.42565C41.4283 4.09527 41.3063 4.81012 41.3288 5.52777V10.2617C41.3404 13.8811 39.927 17.3596 37.3944 19.9453C36.1757 21.1988 34.7181 22.1953 33.1077 22.8757C31.4973 23.5561 29.7668 23.9066 28.0185 23.9066C26.2703 23.9066 24.5398 23.5561 22.9293 22.8757C21.3189 22.1953 19.8613 21.1988 18.6427 19.9453C16.1114 17.3591 14.7 13.8805 14.7135 10.2617V5.52777C14.7135 4.10624 14.1488 2.74294 13.1436 1.73776C12.1384 0.732587 10.7751 0.167887 9.35359 0.167887C7.93206 0.167887 6.56875 0.732587 5.56358 1.73776C4.5584 2.74294 3.9937 4.10624 3.9937 5.52777V10.2617C3.98109 16.6909 6.49766 22.867 11 27.4565C14.1839 30.7046 18.2299 32.9749 22.6613 33.9999V45.2825C18.2282 46.3122 14.1821 48.588 11 51.8416C6.49717 56.4308 3.98053 62.6071 3.9937 69.0364V73.7703C3.9937 75.1919 4.5584 76.5552 5.56358 77.5604C6.56875 78.5655 7.93206 79.1302 9.35359 79.1302C10.7751 79.1302 12.1384 78.5655 13.1436 77.5604C14.1488 76.5552 14.7135 75.1919 14.7135 73.7703V69.0364C14.6994 65.4175 16.111 61.9387 18.6427 59.3528C19.8613 58.0993 21.3189 57.1029 22.9293 56.4225C24.5398 55.7421 26.2703 55.3915 28.0185 55.3915C29.7668 55.3915 31.4973 55.7421 33.1077 56.4225C34.7181 57.1029 36.1757 58.0993 37.3944 59.3528C39.928 61.9379 41.3415 65.4168 41.3288 69.0364V73.7703C41.3724 75.1621 41.956 76.4823 42.9559 77.4514C43.9558 78.4204 45.2936 78.9623 46.6861 78.9623C48.0785 78.9623 49.4163 78.4204 50.4163 77.4514C51.4162 76.4823 51.9997 75.1621 52.0433 73.7703V69.0364C52.0585 62.6078 49.5437 56.4313 45.0423 51.8416C41.8586 48.5901 37.8131 46.3147 33.381 45.2825V33.9999C37.8127 32.9697 41.8583 30.696 45.0423 27.446" fill="#686868"/>
<path id="Vector_6" d="M28.0212 77.9836C29.8568 77.9836 31.6511 77.4392 33.1772 76.4192C34.7033 75.3992 35.8925 73.9494 36.5945 72.2534C37.2965 70.5573 37.4796 68.6912 37.1207 66.891C36.7619 65.0909 35.8771 63.4376 34.5784 62.1404C33.2797 60.8432 31.6255 59.9603 29.8249 59.6035C28.0244 59.2467 26.1584 59.4319 24.4632 60.1358C22.7679 60.8397 21.3196 62.0306 20.3013 63.5578C19.283 65.0851 18.7406 66.88 18.7427 68.7156C18.7427 71.1764 19.7202 73.5364 21.4603 75.2765C23.2004 77.0166 25.5604 77.9941 28.0212 77.9941" fill="#686868"/>
</g>
</svg>
